<?xml version="1.0" encoding="UTF-8"?>
<svg id="Layer_1" data-name="Layer 1" xmlns="http://www.w3.org/2000/svg" viewBox="0 0 1452.06 1452.06">
  <defs>
    <style>
      .cls-1 {
        fill: #29a1b9;
      }

      .cls-1, .cls-2, .cls-3, .cls-4, .cls-5 {
        stroke-width: 0px;
      }

      .cls-2 {
        fill: #f26867;
      }

      .cls-3 {
        fill: #4d8e9a;
      }

      .cls-4 {
        fill: #75c9b9;
      }

      .cls-5 {
        fill: #084054;
      }
    </style>
  </defs>
  <path class="cls-5" d="M555.24,345.45c-29.24,0-52.94,23.7-52.94,52.94s23.7,52.94,52.94,52.94h524.82c29.24,0,52.94-23.7,52.94-52.94s-23.7-52.94-52.94-52.94h-524.82Z"/>
  <path class="cls-1" d="M440.14,699.68c-29.24,0-52.94,23.71-52.94,52.94s23.7,52.94,52.94,52.94h533.77c29.24,0,52.94-23.7,52.94-52.94s-23.7-52.94-52.94-52.94H440.14Z"/>
  <path class="cls-4" d="M360.52,884.55c-29.24,0-52.94,23.71-52.94,52.94s23.7,52.94,52.94,52.94h272.97c29.24,0,52.94-23.7,52.94-52.94s-23.7-52.94-52.94-52.94h-272.97Z"/>
  <path class="cls-2" d="M288.22,1069.41c-29.24,0-52.94,23.7-52.94,52.94s23.7,52.94,52.94,52.94h262.41c29.24,0,52.94-23.7,52.94-52.94s-23.7-52.94-52.94-52.94h-262.41Z"/>
  <path class="cls-2" d="M718.79,1069.41c29.24,0,52.94,23.7,52.94,52.94s-23.7,52.94-52.94,52.94h-6.91c-29.24,0-52.94-23.7-52.94-52.94s23.7-52.94,52.94-52.94h6.91Z"/>
  <path class="cls-3" d="M778.51,522.57c-29.24,0-52.94,23.7-52.94,52.94s23.7,52.94,52.94,52.94h406.41c29.24,0,52.94-23.7,52.94-52.94s-23.7-52.94-52.94-52.94h-406.41Z"/>
</svg>