<svg version="1.1" id="Layer_1" xmlns="http://www.w3.org/2000/svg" xmlns:xlink="http://www.w3.org/1999/xlink" x="0px" y="0px"
	 width="100%" viewBox="0 0 1024 1024" enable-background="new 0 0 1024 1024" xml:space="preserve">
<path fill="#000000" opacity="1.000000" stroke="none" 
	d="
M536.000000,627.265259 
	C511.167786,627.263794 486.835571,627.277588 462.503387,627.253113 
	C449.318146,627.239807 443.239746,619.669067 446.414093,606.792114 
	C448.600342,597.923462 451.311127,589.183594 453.818695,580.395081 
	C454.314911,578.655945 455.149445,576.997803 454.930023,574.844177 
	C450.943176,573.936340 446.952942,572.859436 443.466248,570.519714 
	C440.995544,568.861755 438.888214,570.588684 436.940552,571.549500 
	C424.379395,577.745483 412.598969,585.327698 400.519867,592.379211 
	C394.335754,595.989441 388.270203,599.802490 382.142487,603.509644 
	C378.269806,605.852600 374.136902,607.581543 369.740326,608.672119 
	C361.623260,610.685425 356.063446,607.599243 353.514893,599.690247 
	C350.517731,590.388916 350.714050,580.650940 349.799255,571.092529 
	C348.200195,554.384521 346.992523,537.634155 345.903992,520.883179 
	C344.563385,500.253113 351.510651,482.260925 364.378143,466.459412 
	C373.584351,455.154144 384.623810,445.689453 396.352142,437.140289 
	C400.444366,434.157318 401.181244,430.916260 400.506409,426.499084 
	C397.916901,409.549042 396.641174,392.521240 396.578522,375.345642 
	C396.460114,342.895203 403.659821,312.148315 416.176056,282.346466 
	C431.326691,246.272079 455.005249,216.976242 485.448730,192.826950 
	C489.770782,189.398483 494.389160,186.439041 499.350189,184.013626 
	C510.352722,178.634552 521.069580,179.332092 531.050964,186.245026 
	C574.662781,216.450027 605.639404,256.082428 621.139160,307.284454 
	C628.134766,330.394012 631.460510,354.032043 631.095947,378.071136 
	C630.831482,395.501465 628.844299,412.880707 625.898499,430.084961 
	C625.358215,433.240265 626.395508,434.608368 628.580811,436.211761 
	C641.375061,445.598724 653.346313,455.883423 663.606812,468.085785 
	C678.049561,485.261719 681.916748,505.288116 680.013062,526.996277 
	C679.026001,538.250732 678.278564,549.526062 677.337402,560.784790 
	C676.369385,572.365173 675.642517,583.981018 674.171631,595.499756 
	C672.751648,606.620605 665.616028,610.790588 654.791077,607.625549 
	C647.335938,605.445740 640.923157,601.205261 634.359680,597.268188 
	C619.936584,588.616760 605.782227,579.508362 590.728149,571.934875 
	C587.739197,570.431213 585.194092,569.396423 582.084656,571.904907 
	C580.501343,573.182251 578.126526,573.844116 576.037231,574.050049 
	C572.059998,574.441895 572.074524,576.411072 572.910339,579.531860 
	C575.615723,589.633789 578.214478,599.766907 580.664978,609.933594 
	C583.207703,620.482910 578.380188,626.909546 567.495728,627.185974 
	C557.169800,627.448242 546.832397,627.256531 536.000000,627.265259 
M425.336639,404.414978 
	C425.727966,408.046295 425.935608,411.708374 426.538544,415.304199 
	C433.862091,458.979462 445.466064,501.558350 459.431854,543.534058 
	C460.406036,546.462158 461.884399,547.777527 465.151215,547.767334 
	C497.472656,547.666565 529.794678,547.671265 562.116089,547.764221 
	C565.304565,547.773376 566.931641,546.693359 567.891113,543.638428 
	C570.829956,534.280823 574.253052,525.071167 577.048828,515.673340 
	C589.231628,474.722107 599.881714,433.362549 603.369812,390.656952 
	C605.773193,361.232330 602.351013,332.216309 592.164307,304.223083 
	C590.951904,300.891479 589.129211,300.087677 585.856323,300.161926 
	C567.041565,300.588867 548.222595,300.561218 529.402100,301.008942 
	C500.763977,301.690308 472.097351,301.879791 443.469208,300.304413 
	C439.013397,300.059204 436.910614,301.742828 435.474030,305.796814 
	C424.216614,337.565857 420.742218,370.111206 425.336639,404.414978 
M544.329346,274.646667 
	C555.168152,274.296844 566.006958,273.947021 577.595886,273.572998 
	C576.268494,271.269104 575.508179,269.813293 574.624756,268.436554 
	C559.684204,245.152405 540.435120,226.007675 518.323303,209.558365 
	C515.152771,207.199799 512.662048,206.898834 509.450592,209.286438 
	C489.840759,223.865402 471.661377,239.857758 458.133362,260.512238 
	C455.436188,264.630280 452.926880,268.864807 451.399231,273.130798 
	C452.308136,274.561920 453.160828,274.611115 453.985748,274.646179 
	C464.297333,275.084808 474.615570,276.311615 484.926880,275.554962 
	C504.398743,274.126038 523.885986,274.913147 544.329346,274.646667 
M421.701294,516.606567 
	C416.221954,499.236938 412.316742,481.449158 408.067444,463.117950 
	C400.464722,467.763245 394.436707,473.201996 388.958466,479.180115 
	C379.556305,489.440277 373.831299,501.107391 374.148438,515.615173 
	C374.384949,526.432434 375.037720,537.221252 375.467346,548.020569 
	C375.807678,556.575928 376.910889,565.100891 377.675934,573.645691 
	C378.378937,573.645691 378.771759,573.768799 379.006592,573.628174 
	C394.998901,564.049438 410.958923,554.416626 426.979614,544.885742 
	C429.478851,543.398926 429.166077,541.546082 428.496735,539.344910 
	C426.273407,532.033569 424.095398,524.708435 421.701294,516.606567 
M617.859070,468.391235 
	C612.496155,492.390259 606.871155,516.322144 598.258972,539.416687 
	C597.108887,542.500610 598.179993,543.911194 600.657227,545.389282 
	C614.669739,553.750122 628.589355,562.266968 642.624512,570.589233 
	C644.632996,571.780151 646.427612,573.766968 649.736084,573.731934 
	C648.957092,566.457397 650.385437,559.584900 650.699341,552.620300 
	C651.125671,543.162292 651.806213,533.713562 652.506836,524.270447 
	C653.691101,508.308594 651.634644,493.433777 639.838379,481.197723 
	C634.388062,475.544220 628.799927,470.109985 622.593750,465.314941 
	C621.721985,464.641418 620.908936,463.614105 619.534790,464.079559 
	C618.265320,464.962372 618.458557,466.428009 617.859070,468.391235 
M534.386841,574.400818 
	C520.756165,574.397217 507.125336,574.357361 493.494781,574.401672 
	C483.117065,574.435364 484.892822,573.469299 481.928009,582.716187 
	C480.088501,588.453430 477.784332,594.079468 476.785248,600.285095 
	C501.301270,600.285095 525.125244,600.285095 549.544434,600.285095 
	C547.935303,593.877441 546.440308,587.977356 544.973328,582.070312 
	C542.863525,573.575378 544.292542,574.477905 534.386841,574.400818 
z"/>
<path fill="#000000" opacity="1.000000" stroke="none" 
	d="
M455.594727,663.741943 
	C457.724640,651.955872 460.005066,648.911804 473.047577,648.714050 
	C482.153992,648.575928 486.042389,653.596191 483.983826,662.700562 
	C482.520081,669.174316 480.585876,675.546753 478.716705,681.921875 
	C477.454315,686.227356 475.990540,690.476501 474.526794,694.719727 
	C471.880463,702.391113 466.969635,705.399109 459.142181,703.531982 
	C452.029144,701.835327 445.087921,700.018799 437.594849,700.183411 
	C408.185547,700.829529 381.925873,723.362366 377.311432,752.366455 
	C376.562988,757.070984 372.537781,760.057251 366.110718,760.288879 
	C361.118561,760.468872 356.113129,760.340332 351.114624,760.272827 
	C335.886780,760.067200 320.470947,771.554993 320.616852,790.643860 
	C320.754913,808.705200 335.548218,819.608032 351.378998,819.624390 
	C396.875671,819.671265 442.372437,819.634766 487.869171,819.634338 
	C542.698608,819.633789 597.528259,819.556641 652.357178,819.714600 
	C661.837463,819.741882 669.429871,817.310913 673.542480,808.065430 
	C677.757935,798.588440 675.133728,790.238892 669.281006,782.431274 
	C669.181335,782.298462 669.058594,782.183228 668.950073,782.056763 
	C664.120850,776.429443 663.321533,771.770813 666.409790,767.254211 
	C669.760559,762.353638 677.555481,759.913757 683.369080,762.021301 
	C686.914490,763.306641 689.849609,765.577637 692.007812,768.594299 
	C703.436218,784.569275 706.491272,801.994995 698.114258,819.941040 
	C689.899780,837.539124 674.894104,846.210083 655.578430,846.237305 
	C554.252563,846.380188 452.925995,846.438049 351.600525,846.181702 
	C329.018524,846.124634 310.806610,836.773621 299.839600,816.308472 
	C284.873505,788.380859 296.960449,753.193604 325.694336,739.724060 
	C333.284271,736.166077 341.034363,733.146851 349.618683,733.641052 
	C353.504303,733.864685 354.663513,731.384338 355.910461,728.470032 
	C365.159088,706.854248 380.354340,690.956848 401.903229,681.386902 
	C416.812622,674.765625 432.464111,672.328064 448.681366,674.246887 
	C451.449982,674.574585 452.802704,673.782959 453.514191,671.343567 
	C454.212006,668.950989 454.859924,666.543762 455.594727,663.741943 
z"/>
<path fill="#000000" opacity="1.000000" stroke="none" 
	d="
M542.339111,711.435059 
	C537.899292,694.976685 537.132202,678.575867 537.683350,662.071045 
	C538.067688,650.561951 549.470825,643.916443 559.932556,648.922974 
	C563.699036,650.725342 564.439453,653.840515 564.371826,657.601868 
	C564.087524,673.423340 564.859741,689.178284 568.369812,704.665161 
	C569.687744,710.480103 571.461670,716.198486 573.188232,721.912415 
	C575.551880,729.734802 573.471191,735.356995 566.995728,738.140076 
	C560.001099,741.146423 552.565796,738.835815 548.924255,732.201294 
	C545.447388,725.866882 544.184082,718.761169 542.339111,711.435059 
z"/>
<path fill="#000000" opacity="1.000000" stroke="none" 
	d="
M607.697266,763.383545 
	C605.828857,763.290100 604.380737,763.196228 602.687561,763.086487 
	C602.687561,749.423279 602.701721,736.116516 602.674805,722.809753 
	C602.669861,720.371277 604.010315,719.677673 606.165894,719.679871 
	C619.165161,719.693115 632.164612,719.711243 645.163574,719.644348 
	C647.953125,719.630005 649.074402,720.894226 649.071289,723.556641 
	C649.057434,735.555664 649.040100,747.554810 649.102234,759.553528 
	C649.120972,763.179504 646.873535,763.409119 644.116028,763.398132 
	C632.116699,763.350220 620.117004,763.380981 607.697266,763.383545 
z"/>
<path fill="#000000" opacity="1.000000" stroke="none" 
	d="
M705.277832,693.969360 
	C705.124084,705.730896 706.562927,704.262207 695.495300,704.348572 
	C686.510071,704.418640 677.521484,704.241394 668.539185,704.417725 
	C664.920715,704.488708 663.528870,703.307190 663.592407,699.567688 
	C663.776062,688.754578 663.727173,677.935669 663.617920,667.120544 
	C663.586182,663.978577 664.631714,662.622742 667.921143,662.658813 
	C678.902527,662.779175 689.887268,662.803040 700.867859,662.652893 
	C704.519043,662.602966 705.378967,664.288879 705.334045,667.516663 
	C705.213745,676.168091 705.283325,684.822083 705.277832,693.969360 
z"/>
<path fill="#000000" opacity="1.000000" stroke="none" 
	d="
M748.344360,624.094849 
	C748.337219,631.072144 748.218323,637.564392 748.365601,644.050659 
	C748.439270,647.295715 747.179871,648.465759 743.974609,648.398376 
	C736.988708,648.251526 729.995972,648.265137 723.009338,648.395386 
	C719.819763,648.454834 718.556641,647.255493 718.621948,644.018738 
	C718.769653,636.699890 718.763916,629.374451 718.631958,622.055054 
	C718.573181,618.799438 719.922424,617.634399 723.080322,617.693420 
	C729.567810,617.814514 736.073425,617.983337 742.544312,617.631531 
	C747.208618,617.377869 748.987122,619.110291 748.344360,624.094849 
z"/>
<path fill="#000000" opacity="1.000000" stroke="none" 
	d="
M483.355591,418.727234 
	C464.746704,404.069672 457.906036,385.585938 463.862488,362.854462 
	C469.555542,341.128021 484.660797,328.677429 505.917389,325.190247 
	C531.753418,320.951813 561.734497,338.704529 565.223328,370.177856 
	C569.841248,411.837341 534.733521,430.778137 506.547546,428.159851 
	C498.173706,427.381989 490.518585,423.912933 483.355591,418.727234 
M526.716919,354.719788 
	C517.310181,349.330719 507.163910,350.271576 497.923584,357.389679 
	C489.586304,363.812164 486.729523,376.701385 491.227325,387.352539 
	C495.999054,398.652405 507.592041,402.255463 516.016235,401.404877 
	C526.898926,400.306000 535.220459,392.595367 537.616699,382.665588 
	C540.248779,371.758362 536.600708,361.999725 526.716919,354.719788 
z"/>
</svg>