<svg version="1.1" id="Layer_1" xmlns="http://www.w3.org/2000/svg" xmlns:xlink="http://www.w3.org/1999/xlink" x="0px" y="0px"
	 width="100%" viewBox="0 0 1024 1024" enable-background="new 0 0 1024 1024" xml:space="preserve">
<path fill="#000000" opacity="1.000000" stroke="none" 
	d="
M420.999939,893.338501 
	C383.673096,893.340515 346.846283,893.347778 310.019470,893.340271 
	C300.310852,893.338318 295.323181,888.552490 295.742889,878.954468 
	C296.471802,862.286255 295.512970,845.634766 295.647430,828.975647 
	C295.729523,818.805115 299.770691,814.659424 309.745331,814.646973 
	C314.411163,814.641174 319.105347,814.326294 323.735199,814.734863 
	C328.753296,815.177795 330.047607,813.136780 329.780121,808.458862 
	C329.419189,802.146667 329.667206,795.799438 329.662048,789.467224 
	C329.646271,770.195374 338.983002,756.654663 357.119110,749.631531 
	C358.346832,749.156128 359.562317,748.649231 361.111023,748.025024 
	C358.953644,740.275452 356.462006,732.727295 354.770599,725.003906 
	C347.918365,693.714844 351.766724,663.633118 364.989319,634.500122 
	C377.893646,606.068481 395.917725,581.318542 417.658844,559.117615 
	C433.511932,542.929138 450.048035,527.413635 465.380707,510.713226 
	C467.275085,508.649841 468.997711,506.428833 470.720886,504.375031 
	C470.111847,503.024780 469.149628,503.378113 468.431976,503.478271 
	C454.025177,505.488220 439.938080,503.356720 425.871033,500.444977 
	C409.309753,497.017029 393.873566,501.385773 378.857483,507.852356 
	C370.702332,511.364319 363.244690,516.054626 356.729645,522.171997 
	C353.684814,525.030945 349.960083,526.254150 345.806915,526.365601 
	C332.638245,526.718811 319.492523,526.043823 306.363861,525.252502 
	C294.517395,524.538391 281.748810,511.708099 279.720551,498.187714 
	C277.637024,484.298737 278.928925,470.280151 279.206543,456.315186 
	C279.265961,453.325867 279.365662,450.304749 279.841919,447.362213 
	C281.565796,436.710785 285.714325,427.605469 294.517914,420.504578 
	C338.269012,385.215149 379.312256,346.953735 418.569794,306.737915 
	C429.544769,295.495056 442.474060,286.525879 455.344818,277.600494 
	C458.473969,275.430542 459.123932,273.405823 458.200317,269.754028 
	C454.128784,253.656143 450.172424,237.521149 446.642914,221.297653 
	C444.976562,213.638275 449.406677,208.409882 457.225586,208.747070 
	C477.578644,209.624786 495.372345,217.258408 510.680725,230.569992 
	C518.036865,236.966599 524.055237,244.617035 528.216797,253.425064 
	C530.232971,257.692291 533.143921,259.290009 537.403748,259.554413 
	C558.121765,260.840454 577.637756,266.725739 596.196594,275.681091 
	C649.191772,301.253265 681.218018,343.046875 692.455139,400.839935 
	C696.734436,422.848816 695.584778,444.785950 692.560791,466.792389 
	C688.742798,494.577728 684.796021,522.352539 681.546570,550.206787 
	C678.318115,577.880859 678.187988,605.766235 679.575623,633.519958 
	C681.423035,670.470703 687.187195,706.858093 700.233948,741.783752 
	C701.626038,745.510193 703.426880,747.173889 707.497803,747.910889 
	C726.628357,751.374512 740.278809,768.142578 740.340576,787.617432 
	C740.362793,794.616150 740.567749,801.624390 740.268066,808.610229 
	C740.084778,812.882935 741.765259,814.091125 745.776672,814.017273 
	C751.256775,813.916382 756.759033,813.628479 762.236572,814.538025 
	C768.980164,815.657776 773.169128,819.741821 773.240601,826.589539 
	C773.431946,844.917542 773.431335,863.249695 773.273010,881.578186 
	C773.213684,888.448120 767.956604,893.248230 760.935303,893.313232 
	C751.104492,893.404114 741.272339,893.337402 731.440735,893.337402 
	C628.127136,893.337830 524.813538,893.338013 420.999939,893.338501 
M466.299530,541.799255 
	C454.503052,553.569031 442.448608,565.093628 430.972046,577.167480 
	C414.745819,594.238281 400.198517,612.622009 389.386108,633.728210 
	C378.743927,654.502258 372.372864,676.256165 373.315033,699.861633 
	C373.905853,714.663635 377.939819,728.643616 382.537018,742.566406 
	C383.811554,746.426392 385.822876,747.682800 389.783295,747.640320 
	C406.600464,747.459656 423.420776,747.598389 440.239746,747.555725 
	C493.888000,747.419617 547.536133,747.246094 601.184326,747.104736 
	C624.514404,747.043335 647.844666,747.049011 671.174500,746.949524 
	C673.416016,746.939941 675.818665,747.561646 677.953125,746.118408 
	C678.239441,743.632935 677.193665,741.486084 676.485779,739.313538 
	C664.869141,703.664124 658.691528,667.040466 657.787598,629.620544 
	C656.975586,596.007385 657.702820,562.425232 662.549072,529.034058 
	C665.956787,505.553955 668.906555,482.006378 671.946045,458.474121 
	C674.212463,440.926697 675.155029,423.346344 671.634583,405.839081 
	C662.800720,361.908508 640.903442,326.677612 602.009827,303.268921 
	C579.911682,289.968842 555.982727,281.522400 529.984375,280.462433 
	C520.597168,280.079773 514.429382,276.882690 510.806335,267.774384 
	C504.667236,252.340775 493.977722,241.151138 477.709290,236.040314 
	C476.055145,235.520645 474.451111,234.333298 472.668976,235.359711 
	C472.149078,236.869705 472.683044,238.094803 473.002533,239.393951 
	C475.856842,251.000931 478.705017,262.610077 481.435364,274.246704 
	C483.451141,282.837738 482.186371,286.070618 474.978790,290.688904 
	C455.108917,303.420654 437.035950,318.333740 420.705475,335.348083 
	C385.924408,371.585541 348.327820,404.708344 309.277985,436.225647 
	C304.916840,439.745544 302.219269,444.276215 301.363892,449.676483 
	C299.161591,463.579834 300.318909,477.609039 300.588593,491.563751 
	C300.740570,499.427917 307.040497,504.508179 314.951385,504.621796 
	C323.281982,504.741425 331.615662,504.631866 339.947510,504.691650 
	C342.049988,504.706726 343.801056,504.199127 345.400238,502.739655 
	C354.925415,494.046448 366.233734,488.455017 378.281403,484.273712 
	C396.001007,478.123840 414.006317,475.256256 432.629730,479.909607 
	C456.515076,485.877747 479.295074,482.611542 500.624451,470.629333 
	C519.532288,460.007477 533.929504,445.762299 535.817993,422.455719 
	C536.257874,417.026672 541.029785,412.927673 546.240662,412.699371 
	C551.095825,412.486633 555.100952,415.682068 556.708252,421.002716 
	C557.701111,424.289276 557.478699,427.566956 556.813354,430.870270 
	C551.961731,454.956726 538.137573,472.769836 518.038147,486.126892 
	C513.813538,488.934387 510.269989,492.376343 507.034851,496.208862 
	C494.036346,511.607605 481.155365,527.111206 466.299530,541.799255 
M681.499939,814.652832 
	C692.329407,814.641174 703.160217,814.533081 713.987671,814.673950 
	C717.441101,814.718750 718.757446,813.512512 718.694580,810.039124 
	C718.540894,801.544861 718.638550,793.046021 718.629517,784.549072 
	C718.626160,781.415833 717.431152,778.649475 715.593384,776.245850 
	C711.778442,771.256409 706.603699,769.291138 700.341309,769.294067 
	C590.712830,769.345520 481.084320,769.330383 371.455841,769.330139 
	C370.789429,769.330139 370.122223,769.316040 369.456696,769.341858 
	C359.852539,769.714233 352.226746,777.398743 352.120575,786.918945 
	C352.044403,793.748962 352.080200,800.580627 352.104279,807.411438 
	C352.129791,814.643311 352.149567,814.651489 359.611603,814.651611 
	C466.574371,814.653320 573.537109,814.652527 681.499939,814.652832 
M378.499939,872.654907 
	C502.535431,872.654907 626.570923,872.654907 750.268555,872.654907 
	C750.741333,871.572998 750.986145,871.273499 750.986755,870.973450 
	C751.005554,861.979004 750.993530,852.984558 751.000793,843.990051 
	C751.006958,836.404358 751.014954,836.400208 743.322876,836.399963 
	C603.559021,836.395325 463.795166,836.391785 324.031311,836.388245 
	C323.198395,836.388245 322.359314,836.457581 321.533661,836.381042 
	C318.274872,836.078979 317.133942,837.567261 317.182983,840.772400 
	C317.318085,849.599243 317.397614,858.434021 317.158020,867.256409 
	C317.047272,871.334290 318.312012,872.773499 322.528107,872.729553 
	C340.850311,872.538757 359.175690,872.651794 378.499939,872.654907 
z"/>
<path fill="#000000" opacity="1.000000" stroke="none" 
	d="
M325.135010,726.327087 
	C319.237305,725.973694 315.721344,722.134644 312.077423,718.841919 
	C265.160156,676.445984 234.967819,624.186584 220.800598,562.683960 
	C214.922043,537.163940 212.438171,511.247955 212.561218,485.001709 
	C212.729141,449.179993 211.571976,413.345154 212.132736,377.533905 
	C212.871170,330.377777 212.332291,283.226990 212.687775,236.075623 
	C212.761826,226.254059 216.374252,222.163177 226.151871,221.087952 
	C235.926727,220.013016 245.753601,220.783325 255.580017,219.945755 
	C278.198761,218.017822 300.309998,213.597763 322.057037,207.448334 
	C370.451263,193.763885 415.981567,173.648605 457.811920,145.513260 
	C473.041962,135.269455 487.610992,124.188637 500.859283,111.424423 
	C507.981323,104.562630 515.619141,104.453331 523.075134,111.104767 
	C573.507751,156.095749 632.631592,184.972809 696.612732,204.889877 
	C719.366333,211.972977 742.620911,216.671906 766.258057,219.441406 
	C773.346802,220.271973 780.530762,220.312912 787.674438,220.641800 
	C791.001953,220.794968 794.349121,220.613739 797.667358,220.857040 
	C809.946838,221.757446 813.335205,225.490936 813.335632,237.846573 
	C813.338928,323.340546 813.624573,408.835724 813.262512,494.328125 
	C812.967529,564.001282 791.844604,626.782043 749.044556,682.061707 
	C742.512329,690.498596 735.652283,698.642212 728.715942,706.735046 
	C727.286438,708.402893 725.688293,709.867371 723.742310,710.850037 
	C719.011658,713.239136 714.508484,712.631653 711.319031,709.294983 
	C708.146057,705.975342 707.404480,701.223633 710.332031,696.883423 
	C714.421753,690.820190 718.937012,685.020874 723.557678,679.342529 
	C752.676941,643.558228 774.104309,603.957336 784.022705,558.559326 
	C787.179993,544.108276 789.972778,529.603271 790.643066,514.799255 
	C793.002991,462.676727 791.451050,410.520752 791.802307,358.380859 
	C792.048157,321.885132 791.785889,285.386108 791.962280,248.889557 
	C791.985535,244.069656 790.873108,242.427109 785.653381,242.181961 
	C751.796814,240.591919 718.717102,234.402435 686.273682,224.596985 
	C647.217834,212.793045 609.965393,196.918640 574.838196,176.101990 
	C554.293762,163.927231 534.761108,150.341949 516.901855,134.469528 
	C513.476013,131.424805 511.241669,131.371445 507.774353,134.365463 
	C446.061401,187.654739 374.114807,219.633804 294.789337,235.981400 
	C277.032745,239.640732 258.992828,241.710098 240.854645,242.207626 
	C235.997574,242.340881 235.093964,244.113373 235.102661,248.430084 
	C235.200363,296.926300 235.108337,345.422852 235.135178,393.919281 
	C235.155182,430.082733 234.757767,466.256165 235.458633,502.407471 
	C236.850113,574.182495 262.991577,635.889709 312.699799,687.614319 
	C319.278046,694.459412 326.238525,700.937622 333.036346,707.571106 
	C336.653625,711.100952 337.570465,715.437195 335.854553,719.952026 
	C334.152710,724.429749 330.415314,726.503174 325.135010,726.327087 
z"/>
<path fill="#000000" opacity="1.000000" stroke="none" 
	d="
M432.500305,375.287231 
	C428.750977,374.502869 425.740173,373.348053 423.804260,370.248199 
	C419.244659,362.947235 423.211151,354.318512 431.813416,353.851440 
	C440.262634,353.392670 448.765411,353.506683 457.227478,353.826050 
	C464.329803,354.094147 468.584625,358.801178 468.335022,365.246246 
	C468.107697,371.117310 463.326172,375.238770 456.374939,375.318298 
	C448.566162,375.407654 440.755432,375.323517 432.500305,375.287231 
z"/>
</svg>