<svg version="1.1" id="Layer_1" xmlns="http://www.w3.org/2000/svg" xmlns:xlink="http://www.w3.org/1999/xlink" x="0px" y="0px"
	 width="100%" viewBox="0 0 1024 1024" enable-background="new 0 0 1024 1024" xml:space="preserve">
<path fill="#000000" opacity="1.000000" stroke="none" 
	d="
M215.648315,640.999878 
	C215.648544,508.180450 216.042740,375.858795 215.301102,243.543503 
	C215.160950,218.537689 233.795105,201.766251 256.852539,202.044464 
	C277.847290,202.297775 298.848236,202.018265 319.844086,202.219788 
	C323.124176,202.251266 324.602356,201.403259 325.374115,198.236923 
	C328.913177,183.717163 343.152039,171.727707 360.716217,172.470245 
	C379.846680,173.278992 399.037781,172.661438 418.202423,172.650696 
	C424.426666,172.647217 425.335846,171.842880 425.611908,165.531372 
	C426.792175,138.549026 445.453491,115.494919 472.687622,109.259270 
	C505.824738,101.672043 543.042786,118.921242 551.604797,155.787491 
	C552.505615,159.666092 553.462524,163.589767 553.246155,167.591675 
	C553.030701,171.577087 554.723145,172.738190 558.556641,172.712021 
	C578.553589,172.575500 598.552002,172.648651 618.549866,172.655807 
	C635.509460,172.661865 648.313171,181.641586 653.544189,197.731873 
	C654.693115,201.265701 656.106323,202.212936 659.749695,202.174011 
	C680.911865,201.947830 702.078186,201.925186 723.241638,202.063232 
	C745.986511,202.211578 763.343933,219.768936 763.345398,242.379013 
	C763.351685,338.535583 763.352234,434.692169 763.341003,530.848755 
	C763.339844,541.053711 756.901367,545.949646 748.375977,542.303162 
	C743.818970,540.353943 742.063354,536.569824 741.896667,531.941956 
	C741.734741,527.447815 741.821045,522.944275 741.820557,518.444824 
	C741.811462,435.786865 741.802490,353.128906 741.803711,270.470947 
	C741.803833,261.640228 741.998352,252.807602 741.869690,243.979263 
	C741.678040,230.831055 733.983337,223.354233 720.903015,223.350937 
	C701.238403,223.345993 681.572571,223.467270 661.910217,223.257843 
	C657.528687,223.211182 656.115295,224.496521 656.214661,228.918320 
	C656.484131,240.910995 656.333069,252.913757 656.302246,264.912384 
	C656.278564,274.137817 651.200989,279.165833 642.051208,278.976471 
	C636.256287,278.856506 630.464783,278.394318 624.671692,278.391907 
	C531.181519,278.353058 437.691315,278.363525 344.201141,278.362000 
	C341.701416,278.361969 339.201080,278.386414 336.702057,278.341858 
	C327.550659,278.178650 323.736023,274.363403 323.671356,265.069458 
	C323.591309,253.571198 323.652130,242.072006 323.647064,230.573212 
	C323.643921,223.371841 323.639801,223.356110 316.682007,223.352493 
	C296.350800,223.341965 276.019592,223.333786 255.688400,223.347229 
	C243.586639,223.355240 236.179214,230.512939 236.379501,242.550751 
	C237.477310,308.531128 237.164276,374.516479 237.209412,440.500397 
	C237.239059,483.828186 237.607819,527.162659 236.994278,570.482361 
	C235.920639,646.288025 236.607025,722.092529 236.359589,797.896912 
	C236.302460,815.397888 242.903351,822.065613 260.523621,822.078430 
	C327.683136,822.127197 394.842743,822.090149 462.002319,822.081970 
	C499.331726,822.077454 536.661133,822.055664 573.990540,822.082703 
	C576.475403,822.084473 578.995178,822.235474 581.437195,822.665955 
	C586.203491,823.506226 589.044189,826.855774 589.329895,831.580566 
	C589.671509,837.228882 587.382019,840.794922 582.387390,842.264954 
	C579.827820,843.018250 577.220886,843.339172 574.520935,843.338074 
	C469.698608,843.295837 364.876312,843.311829 260.053986,843.273682 
	C238.458069,843.265808 224.001785,833.795593 217.682571,815.717529 
	C216.131271,811.279358 215.626633,806.677612 215.629410,801.972778 
	C215.660843,748.481812 215.648865,694.990906 215.648315,640.999878 
M424.499939,257.661713 
	C448.659576,257.660950 472.819214,257.659332 496.978851,257.659607 
	C540.966064,257.660095 584.953369,257.613281 628.940186,257.739929 
	C633.217957,257.752258 634.815674,256.594147 634.737061,252.108002 
	C634.491699,238.116364 634.727539,224.117111 634.618347,210.122025 
	C634.541077,200.213943 629.098694,194.595261 619.217896,194.267715 
	C606.743896,193.854218 594.263306,193.573517 581.783264,193.427155 
	C569.288574,193.280609 556.790344,193.441422 544.294983,193.328873 
	C537.061707,193.263733 534.260620,190.708740 532.390076,183.796555 
	C531.269043,179.654068 531.573303,175.502228 531.743103,171.390686 
	C532.108582,162.541763 529.663330,154.568054 524.808655,147.352859 
	C515.564209,133.613556 502.364197,127.316528 486.002899,128.197525 
	C470.910004,129.010223 459.790009,136.652054 452.007385,149.505264 
	C446.275940,158.970825 446.207794,169.384109 446.225861,179.920456 
	C446.244843,191.006973 442.705780,194.331451 431.473907,194.321762 
	C407.314575,194.300903 383.155243,194.257370 358.995911,194.245438 
	C349.674988,194.240845 345.238861,198.440033 345.118469,207.871033 
	C344.931305,222.531235 345.129761,237.196686 344.902740,251.855865 
	C344.831604,256.448578 346.476654,257.791626 351.021790,257.753998 
	C375.179749,257.554108 399.340271,257.660797 424.499939,257.661713 
z"/>
<path fill="#000000" opacity="1.000000" stroke="none" 
	d="
M748.999878,885.346313 
	C715.503845,885.343750 682.507446,885.419739 649.511841,885.299988 
	C636.193237,885.251648 624.746704,880.818909 616.400696,869.856995 
	C612.005981,864.084961 609.734253,857.500427 609.715393,850.384766 
	C609.596924,805.723816 609.590576,761.062195 609.688721,716.401062 
	C609.726929,699.000732 623.766907,684.384399 641.046265,683.744812 
	C644.975342,683.599365 645.783386,682.069031 645.720703,678.611145 
	C645.560608,669.781799 645.913513,660.939575 645.626770,652.116638 
	C644.245239,609.602051 673.753723,574.329285 715.304565,566.707458 
	C755.255798,559.379028 794.626038,581.891052 808.761780,617.853149 
	C813.333435,629.483826 815.466492,641.429443 815.361633,653.863708 
	C815.291382,662.195435 815.443970,670.529846 815.304321,678.859802 
	C815.250244,682.085144 815.986755,683.600281 819.691406,683.744812 
	C837.257324,684.430054 851.274109,698.976868 851.312866,716.632385 
	C851.410156,760.960205 851.423828,805.288574 851.306641,849.616272 
	C851.254028,869.522522 834.265015,884.892517 811.991638,885.296875 
	C799.164001,885.529724 786.328796,885.346497 773.497009,885.348511 
	C765.497986,885.349731 757.498962,885.347107 748.999878,885.346313 
M829.583313,713.394470 
	C827.329285,707.524963 823.363525,704.308777 816.774048,704.316284 
	C759.802429,704.381042 702.830811,704.345337 645.859131,704.371582 
	C636.356750,704.375916 631.290833,709.441467 631.291077,718.824707 
	C631.292358,761.636719 631.596802,804.452026 631.101135,847.258118 
	C630.996643,856.282288 638.746277,864.013184 647.881409,863.943237 
	C702.183716,863.527344 756.491333,863.796204 810.797119,863.840210 
	C824.415649,863.851257 830.708984,857.693298 830.635193,844.113220 
	C830.417969,804.150024 830.128601,764.187317 829.856873,724.224426 
	C829.834290,720.894836 829.733093,717.565857 829.583313,713.394470 
M761.914307,594.553650 
	C750.276794,588.423828 738.191895,584.708557 724.743286,586.219299 
	C695.808899,589.469543 673.875000,608.663696 668.266357,637.283264 
	C665.473816,651.532654 667.636414,666.166321 667.331482,680.622070 
	C667.261780,683.925903 669.731812,683.653564 671.903748,683.653748 
	C711.031067,683.656311 750.158447,683.610291 789.285522,683.706726 
	C793.164917,683.716248 794.091736,682.093750 794.027588,678.597290 
	C793.871765,670.108887 794.030518,661.615234 793.987061,653.124146 
	C793.859314,628.140442 783.879333,608.459473 761.914307,594.553650 
z"/>
<path fill="#000000" opacity="1.000000" stroke="none" 
	d="
M564.999878,547.348999 
	C533.670288,547.279907 502.840698,547.207275 472.011108,547.147888 
	C469.673309,547.143433 467.365479,547.088379 465.086975,546.416016 
	C459.165009,544.668457 456.779388,540.575317 457.714569,533.603821 
	C458.369904,528.718689 461.999878,525.676514 467.553192,525.674622 
	C537.380798,525.650696 607.208374,525.650452 677.036011,525.681641 
	C682.986084,525.684326 686.501099,528.688721 687.514404,534.247620 
	C688.510681,539.713013 685.750793,544.274536 680.353271,546.346191 
	C677.785828,547.331604 675.160767,547.358643 672.491150,547.357788 
	C636.827393,547.346802 601.163696,547.349548 564.999878,547.348999 
z"/>
<path fill="#000000" opacity="1.000000" stroke="none" 
	d="
M568.000000,401.189087 
	C535.018860,401.184601 502.537720,401.154877 470.056671,401.203186 
	C465.483948,401.209991 461.474792,400.116760 458.482819,396.502777 
	C453.824280,390.875763 456.335236,382.734741 463.298706,380.437592 
	C465.423370,379.736694 467.553192,379.741241 469.711212,379.741211 
	C537.005432,379.740814 604.299622,379.752197 671.593872,379.732971 
	C674.455078,379.732147 677.266113,379.856537 679.900146,381.062042 
	C684.157776,383.010620 686.173096,386.383148 685.917358,391.042999 
	C685.662109,395.693359 683.392578,398.862732 678.838135,400.227509 
	C676.097900,401.048645 673.289734,401.188934 670.440918,401.187286 
	C636.460632,401.167480 602.480286,401.182678 568.000000,401.189087 
z"/>
<path fill="#000000" opacity="1.000000" stroke="none" 
	d="
M387.953125,354.967163 
	C391.422577,351.125427 394.559540,347.455597 397.896057,343.977142 
	C402.389435,339.292664 408.487274,338.929047 412.981934,342.886963 
	C417.091858,346.506073 417.851715,353.839722 414.111511,358.219238 
	C403.959656,370.106293 393.585663,381.803314 383.341278,393.611725 
	C371.576508,407.172577 359.858398,420.773834 348.113739,434.352142 
	C347.026093,435.609619 345.963074,436.900543 344.768494,438.051239 
	C340.506622,442.156769 335.857452,442.416656 331.446350,438.386108 
	C318.171234,426.256348 305.856415,413.152191 293.361328,400.239777 
	C289.349030,396.093384 289.807465,389.594208 293.763306,385.854248 
	C297.627716,382.200684 304.059082,382.172485 308.178406,386.068115 
	C315.913177,393.382721 323.507446,400.845764 331.173187,408.233582 
	C332.957214,409.952881 334.793549,411.617889 337.167419,413.831573 
	C354.154633,394.133698 370.932098,374.679016 387.953125,354.967163 
z"/>
<path fill="#000000" opacity="1.000000" stroke="none" 
	d="
M382.918213,691.908325 
	C371.137054,705.710938 359.193634,718.914490 348.367340,733.058899 
	C342.236603,741.068604 336.540375,741.411865 329.345490,734.392273 
	C318.143341,723.463196 306.859314,712.617554 295.715210,701.629822 
	C290.561432,696.548340 290.247589,689.702637 294.650208,685.208618 
	C299.052582,680.714844 304.417389,680.641724 309.209717,685.180725 
	C317.545776,693.076294 326.421631,700.406311 334.133484,708.959290 
	C335.111725,710.044250 336.091187,711.268372 338.352539,711.390747 
	C346.525513,701.804871 354.855316,691.903992 363.329834,682.128540 
	C374.114838,669.687866 384.975128,657.311707 395.898987,644.992798 
	C398.537811,642.016968 401.322418,639.323608 405.997040,639.483154 
	C410.432800,639.634460 413.803711,640.944885 415.747437,645.037231 
	C417.705444,649.159546 417.524017,653.074036 414.362762,656.623962 
	C406.176086,665.817383 398.004120,675.023804 389.820984,684.220337 
	C387.610016,686.705139 385.380463,689.173401 382.918213,691.908325 
z"/>
<path fill="#000000" opacity="1.000000" stroke="none" 
	d="
M393.985901,498.989929 
	C395.614105,497.287872 396.944061,495.787384 398.410767,494.435211 
	C402.568329,490.602173 408.386627,490.413147 412.439697,493.906555 
	C416.880249,497.733978 418.079163,503.623596 414.579529,508.195709 
	C410.345245,513.727539 405.605225,518.890015 400.883148,524.027649 
	C381.864868,544.719788 363.165497,565.687683 345.294891,587.386597 
	C340.880646,592.746460 335.114227,593.764709 330.039062,589.022339 
	C317.759674,577.548096 305.791962,565.725952 294.035126,553.714661 
	C289.902222,549.492310 290.463104,542.324829 294.203644,538.703796 
	C298.300385,534.737915 304.691040,534.885132 309.463806,539.387268 
	C318.166443,547.596619 326.717224,555.966858 335.891998,564.810364 
	C355.347870,542.767517 374.548950,521.013306 393.985901,498.989929 
z"/>
<path fill="#000000" opacity="1.000000" stroke="none" 
	d="
M579.103638,694.398438 
	C576.408081,696.074097 573.836670,696.379028 571.110046,696.375916 
	C536.969360,696.336548 502.828583,696.361572 468.687836,696.344727 
	C461.367371,696.341064 456.617065,692.343384 456.388123,686.122253 
	C456.149475,679.636719 460.760406,675.048096 468.390198,675.019958 
	C502.530396,674.894104 536.671448,674.900513 570.811707,675.009277 
	C575.830811,675.025269 580.343872,676.599731 582.388550,682.007385 
	C584.193481,686.780945 583.131531,690.774536 579.103638,694.398438 
z"/>
<path fill="#000000" opacity="1.000000" stroke="none" 
	d="
M473.894470,175.607056 
	C478.383850,166.787460 485.472076,163.689285 494.271912,166.346329 
	C502.185913,168.735886 506.580170,175.593246 505.867920,184.442230 
	C505.090637,194.099472 500.747986,199.427963 492.288177,201.104782 
	C485.440399,202.462097 478.156342,198.811432 474.619629,192.564926 
	C471.534210,187.115494 473.612701,181.543777 473.894470,175.607056 
z"/>
<path fill="#000000" opacity="1.000000" stroke="none" 
	d="
M742.088989,805.365479 
	C742.082947,812.318420 742.237671,818.821655 742.020447,825.312439 
	C741.794861,832.053955 738.149414,836.608582 732.898621,837.297546 
	C725.136353,838.316040 720.279358,834.140503 720.020569,825.859009 
	C719.822876,819.534546 719.839294,813.189819 720.112854,806.869385 
	C720.273804,803.149292 718.837097,801.174805 715.501404,799.643188 
	C696.920837,791.111267 688.705994,769.476196 697.407288,751.034241 
	C703.306091,738.531921 713.680969,732.190491 727.581421,731.622864 
	C741.758972,731.043884 753.530212,735.470337 761.221130,747.958679 
	C771.794373,765.127563 764.949158,788.271057 746.220520,799.001282 
	C743.779236,800.399963 741.492493,801.550842 742.088989,805.365479 
M728.866821,752.361450 
	C726.662842,752.542114 724.663696,753.373596 722.778992,754.440918 
	C718.036682,757.126343 715.217346,761.423767 715.563843,766.676331 
	C715.964233,772.747009 719.047791,777.697327 725.005066,780.308289 
	C730.318054,782.636658 735.001770,781.524475 739.353760,777.933167 
	C744.411682,773.759338 745.926147,768.391052 744.294495,762.276733 
	C742.720581,756.378601 737.059753,752.759766 728.866821,752.361450 
z"/>
</svg>