<svg version="1.1" id="Layer_1" xmlns="http://www.w3.org/2000/svg" xmlns:xlink="http://www.w3.org/1999/xlink" x="0px" y="0px"
	 width="100%" viewBox="0 0 1024 1024" enable-background="new 0 0 1024 1024" xml:space="preserve">
<path fill="#000000" opacity="1.000000" stroke="none" 
	d="
M816.303223,619.051025 
	C816.303833,632.540588 816.342346,645.538879 816.293396,658.536804 
	C816.249634,670.152466 809.968628,676.340942 798.320984,676.363708 
	C791.155334,676.377686 783.985657,676.520020 776.825989,676.315857 
	C773.759338,676.228516 772.291748,677.370605 771.532837,680.233643 
	C769.043213,689.624573 765.313721,698.516724 759.914978,706.610168 
	C758.163147,709.236328 759.128479,710.839966 760.937134,712.640564 
	C766.250793,717.930420 771.518860,723.265869 776.812378,728.576050 
	C786.315247,738.108887 786.339661,747.667542 776.803650,757.257141 
	C767.403809,766.709961 757.960327,776.119507 748.519897,785.531860 
	C739.831970,794.194031 730.695862,794.341614 721.797180,785.816101 
	C716.263306,780.514343 710.813782,775.115051 705.534607,769.561584 
	C703.248108,767.156250 701.349731,766.522583 698.215271,768.205139 
	C690.575378,772.306152 682.515076,775.471436 674.031311,777.423584 
	C671.128723,778.091492 669.990601,779.731995 670.051208,782.752502 
	C670.201843,790.248230 670.148193,797.749695 670.078064,805.247925 
	C669.963989,817.438232 664.018311,823.360474 651.967529,823.367981 
	C637.302979,823.377136 622.638306,823.390686 607.973816,823.357422 
	C597.013916,823.332581 590.757996,817.013855 590.693542,805.925415 
	C590.650879,798.593384 590.494263,791.253723 590.767334,783.931641 
	C590.908447,780.147583 589.794006,778.256897 585.951477,777.287048 
	C577.392761,775.126831 569.048279,772.201538 561.387085,767.720581 
	C558.860596,766.242859 557.409729,767.297852 555.780701,768.934265 
	C550.372864,774.366455 544.938965,779.772827 539.509766,785.183777 
	C530.609985,794.053589 520.706177,794.006287 511.971619,785.189392 
	C502.590515,775.719849 493.085632,766.373047 483.691833,756.915894 
	C474.100311,747.259583 474.137787,737.842285 483.709930,728.269165 
	C489.129791,722.848755 494.461487,717.335022 500.023224,712.064148 
	C502.356812,709.852478 502.826172,708.105957 500.902161,705.294006 
	C495.876007,697.948303 492.605316,689.712158 490.226044,681.202759 
	C489.155090,677.372375 487.256134,676.209595 483.517120,676.307190 
	C475.856934,676.507263 468.186768,676.426758 460.522278,676.333801 
	C451.553680,676.225037 444.882202,669.998840 444.754852,661.014282 
	C444.523407,644.686584 444.506104,628.350525 444.759033,612.023499 
	C444.906586,602.497131 451.277771,596.709839 460.815796,596.665405 
	C468.647827,596.628967 476.481232,596.574768 484.311798,596.685913 
	C487.273987,596.727966 488.841888,595.573914 489.756592,592.731445 
	C492.567505,583.996399 495.957397,575.486023 501.178711,567.860596 
	C502.640961,565.725037 502.072784,564.414673 500.403687,562.754944 
	C494.142670,556.528870 487.975616,550.206421 481.854675,543.841980 
	C474.086182,535.764282 474.285645,525.553345 482.178406,517.725342 
	C492.116730,507.868378 502.018524,497.974304 511.896423,488.056732 
	C520.854492,479.062714 530.318909,479.093170 539.337036,488.183044 
	C544.617737,493.505676 550.085205,498.652344 555.182007,504.144226 
	C557.725830,506.885254 559.936523,506.980499 563.031067,505.278778 
	C570.208862,501.331635 577.862061,498.467102 585.868042,496.765686 
	C589.442566,496.006042 590.878357,494.479736 590.754395,490.720276 
	C590.501892,483.063080 590.633667,475.391296 590.694214,467.726196 
	C590.779541,456.920441 597.052368,450.680939 607.780090,450.673553 
	C622.444641,450.663452 637.109253,450.661560 651.773743,450.691193 
	C663.645020,450.715210 669.906250,456.865356 670.103088,468.824097 
	C670.221008,475.987640 670.267700,483.159760 670.041809,490.318420 
	C669.928406,493.911621 671.103638,495.802338 674.718384,496.606201 
	C683.370911,498.530396 691.605835,501.729492 699.382996,505.950317 
	C702.050171,507.397888 703.561584,506.639343 705.391296,504.755188 
	C711.079163,498.898041 716.864502,493.134766 722.653564,487.376831 
	C730.552429,479.520325 740.420349,479.460175 748.261597,487.281281 
	C758.408081,497.401672 768.519470,507.557861 778.582214,517.761414 
	C786.828430,526.122986 786.718567,536.205200 778.381958,544.599060 
	C772.627930,550.392578 766.922913,556.238464 761.032471,561.890503 
	C758.966370,563.872986 758.704834,565.475098 760.252808,567.897339 
	C765.210571,575.654846 768.893188,584.043701 771.622864,592.815491 
	C772.511841,595.671936 773.873901,596.799255 776.926819,596.713684 
	C784.086731,596.512878 791.256226,596.651428 798.421875,596.662109 
	C809.973389,596.679382 816.213074,602.930115 816.297424,614.562561 
	C816.307068,615.894836 816.301575,617.227295 816.303223,619.051025 
M741.319580,586.133484 
	C738.640564,581.723450 735.951233,577.319641 733.286560,572.900940 
	C731.816467,570.463135 730.743591,567.961853 730.598389,564.982727 
	C730.312500,559.115845 732.090088,554.340210 736.428772,550.244019 
	C742.663391,544.357788 748.600769,538.156738 753.904236,532.851257 
	C747.329834,525.787659 741.232361,519.236450 734.420837,511.918060 
	C728.300293,518.233887 722.507080,524.387817 716.518616,530.345337 
	C709.581909,537.246216 703.054138,538.144104 694.940186,532.902527 
	C683.435913,525.470886 670.985229,520.759399 657.547485,518.341003 
	C648.837341,516.773376 643.721130,510.364594 643.665039,501.468506 
	C643.626099,495.304382 643.521423,489.135864 643.705200,482.977051 
	C643.806458,479.582062 642.702515,478.129028 639.145935,478.250580 
	C633.321655,478.449615 627.480957,478.439880 621.656067,478.248383 
	C618.158325,478.133392 616.899902,479.546051 616.973572,482.938995 
	C617.107361,489.100220 617.148499,495.270966 616.964478,501.429840 
	C616.665955,511.419952 611.231323,517.734863 601.480103,519.254700 
	C589.458252,521.128357 578.425842,525.395386 568.114746,531.823364 
	C556.937927,538.791077 551.992126,538.067078 542.711304,528.730835 
	C537.231689,523.218445 531.712830,517.745117 525.437744,511.481903 
	C519.679260,517.554504 514.536194,523.220520 509.105804,528.596191 
	C506.619385,531.057617 506.603546,532.720520 509.139069,535.112244 
	C515.074829,540.711365 520.834900,546.499390 526.588745,552.287781 
	C532.079407,557.811340 533.364685,565.638428 528.939758,571.912415 
	C520.467285,583.925293 514.643433,596.956970 511.224335,611.237122 
	C509.439209,618.692810 503.752991,622.656677 495.712250,622.897583 
	C489.386902,623.087097 483.051453,622.922363 476.720978,622.973206 
	C475.285156,622.984680 473.690704,622.472229 472.215332,624.153259 
	C472.215332,631.486572 472.288818,639.139954 472.180237,646.790833 
	C472.134888,649.985840 473.741974,650.718445 476.542206,650.674316 
	C482.871490,650.574524 489.204987,650.569275 495.534149,650.676880 
	C503.410980,650.810791 509.587585,655.332397 511.244293,662.787659 
	C514.286682,676.478455 520.002136,688.852234 527.935364,700.380188 
	C533.676453,708.722595 532.770325,715.567932 525.684204,722.791687 
	C520.318237,728.261902 514.857666,733.639160 509.467499,739.085754 
	C508.017731,740.550598 506.634369,742.051392 508.700500,744.154724 
	C514.385986,749.942505 520.022095,755.778870 526.549744,762.492859 
	C532.586975,756.093079 537.873352,750.345032 543.318115,744.751099 
	C551.677856,736.162476 558.137512,735.321899 568.079651,741.704651 
	C578.311096,748.273254 589.400208,752.474182 601.316284,754.695740 
	C611.985901,756.684875 616.783997,762.434814 616.960083,773.329041 
	C617.062378,779.658569 617.101929,785.991638 617.009827,792.320801 
	C616.963318,795.521423 618.236694,796.784790 621.470581,796.694397 
	C627.297119,796.531433 633.135132,796.529114 638.961365,796.698547 
	C642.355774,796.797241 643.802368,795.615173 643.699280,792.088562 
	C643.519287,785.929504 643.648560,779.761353 643.655334,773.596985 
	C643.667542,762.527161 648.135376,756.694763 658.900696,754.850525 
	C670.577454,752.850159 681.238098,748.547485 691.287781,742.406921 
	C703.095642,735.191895 708.860291,735.921082 718.590576,745.723450 
	C723.727417,750.898438 728.730896,756.205811 733.613464,761.265625 
	C740.576904,754.293213 746.874023,747.988037 753.899536,740.953430 
	C748.048401,735.346802 742.164246,729.720642 736.295044,724.079041 
	C733.736145,721.619324 731.900696,718.721802 730.660217,715.362671 
	C727.900696,707.890442 732.394043,702.504089 736.036560,697.072937 
	C742.923523,686.804321 747.190063,675.554077 749.591370,663.530823 
	C751.198975,655.481262 756.640686,650.764038 764.881653,650.667725 
	C771.211731,650.593689 777.548035,650.499329 783.872498,650.699585 
	C787.461243,650.813232 789.052246,649.697876 788.909729,645.892334 
	C788.685425,639.902649 788.708252,633.895447 788.875793,627.902649 
	C788.977295,624.269104 787.627258,622.791809 783.923584,622.912537 
	C777.932129,623.107910 771.928284,623.057983 765.932495,622.951782 
	C757.000977,622.793579 751.699524,618.470520 749.526489,609.869629 
	C747.529785,601.966980 745.562317,594.048950 741.319580,586.133484 
z"/>
<path fill="#000000" opacity="1.000000" stroke="none" 
	d="
M276.731934,418.489990 
	C283.393921,465.351349 294.710754,510.573669 312.522034,553.995667 
	C328.839966,593.777039 349.721283,630.958496 376.684357,664.691406 
	C397.609619,690.870544 421.464783,713.884766 447.888153,734.359741 
	C454.129364,739.196045 455.355530,747.888733 450.736053,754.406433 
	C446.770142,760.002014 438.410919,761.396362 432.001556,756.621155 
	C423.599518,750.361450 415.474640,743.671936 407.670929,736.676147 
	C344.754700,680.272949 302.219269,610.755859 275.725189,530.967957 
	C263.756195,494.922852 254.998215,458.102448 249.996704,420.465240 
	C246.298798,392.637878 243.784500,364.711090 243.329712,336.563293 
	C243.106842,322.769073 242.824738,308.957825 242.702148,295.154602 
	C242.586731,282.161163 250.041916,274.906738 263.046356,273.556732 
	C317.245636,267.930115 369.944916,256.207672 419.974731,233.976212 
	C448.372803,221.357117 475.058258,205.683121 500.942078,188.582718 
	C510.493683,182.272339 516.342041,182.199905 525.708130,188.568359 
	C562.515564,213.595505 601.423828,234.498520 643.772644,248.609848 
	C671.267151,257.771454 699.370483,264.401611 728.032043,268.739075 
	C740.502197,270.626221 752.994080,272.301270 765.498352,273.934570 
	C776.922668,275.426819 782.851135,282.875519 783.048584,294.492157 
	C783.354370,312.484253 783.035217,330.477325 782.181152,348.430969 
	C781.021606,372.805481 778.844238,397.116486 774.580566,421.189606 
	C772.468750,433.113220 770.475891,445.057922 768.357788,456.980377 
	C766.855835,465.434570 760.844910,470.833160 753.989197,470.037628 
	C746.108887,469.123199 740.803467,462.931946 741.744507,454.027527 
	C742.875244,443.327454 744.832092,432.691437 746.897827,422.118866 
	C750.086304,405.799957 751.729553,389.292511 753.643494,372.809479 
	C756.236389,350.479645 756.379700,328.071289 756.183960,305.636719 
	C756.147827,301.494293 755.260864,299.614746 750.538147,298.994415 
	C719.742310,294.949127 689.103027,290.072693 659.141785,281.492554 
	C617.796814,269.652313 578.522217,253.119507 541.641479,230.961899 
	C533.219543,225.902084 524.729919,220.944992 516.465942,215.637695 
	C513.716919,213.872177 511.819397,214.240891 509.309326,215.857681 
	C481.826080,233.560059 453.382172,249.477859 423.151703,262.076355 
	C388.171814,276.654144 352.048767,287.188995 314.657562,293.475128 
	C300.887695,295.790039 287.051910,297.536438 273.209442,299.248901 
	C270.118683,299.631256 269.342560,300.864441 269.320007,303.675201 
	C269.131256,327.168121 270.393677,350.597137 271.839630,374.036255 
	C272.750824,388.807800 274.725067,403.426300 276.731934,418.489990 
z"/>
<path fill="#000000" opacity="1.000000" stroke="none" 
	d="
M548.962097,645.513611 
	C546.563477,608.087463 561.974365,580.617126 594.690552,563.936890 
	C642.895447,539.359680 702.591187,570.808044 710.402588,624.095886 
	C714.132202,649.538879 707.235718,671.519592 690.322083,690.943726 
	C663.922241,721.261963 616.039246,725.752930 583.734924,703.060059 
	C563.701782,688.987366 552.731873,669.779785 548.962097,645.513611 
M594.846436,677.643372 
	C608.134399,688.304565 623.019653,692.717896 640.037537,689.757446 
	C666.057068,685.230896 688.501892,659.400085 683.808105,629.002075 
	C679.103333,598.532959 650.857056,577.722839 620.880615,583.449097 
	C598.477295,587.728760 583.308350,601.069824 577.215759,623.164673 
	C571.331482,644.504211 578.308838,662.431030 594.846436,677.643372 
z"/>
</svg>