<svg version="1.1" id="Layer_1" xmlns="http://www.w3.org/2000/svg" xmlns:xlink="http://www.w3.org/1999/xlink" x="0px" y="0px"
	 width="100%" viewBox="0 0 1024 1024" enable-background="new 0 0 1024 1024" xml:space="preserve">
<path fill="#000000" opacity="1.000000" stroke="none" 
	d="
M495.999939,843.298767 
	C446.841034,843.300842 398.182129,843.309814 349.523224,843.301025 
	C330.663971,843.297668 319.546570,833.049500 317.601807,814.108887 
	C316.496857,803.347290 315.595062,792.570190 315.727051,781.755371 
	C315.778015,777.577698 314.223846,776.534546 310.214813,776.208862 
	C286.273376,774.263611 263.517059,768.424011 244.476822,752.892761 
	C225.713593,737.587402 215.176910,717.805725 212.471588,693.463318 
	C210.212509,673.136047 215.573151,654.237976 220.956345,635.218201 
	C230.195419,602.574829 240.481598,570.260193 251.150253,538.052185 
	C261.798126,505.906830 281.983154,482.178955 311.529785,466.008118 
	C327.458069,457.290588 343.333832,448.485535 359.614807,440.433044 
	C361.653107,439.424927 364.022461,438.797974 365.372437,436.512726 
	C364.792725,433.842285 362.904358,431.839539 361.372711,429.772858 
	C339.730133,400.569641 336.010254,368.482513 345.328583,334.045166 
	C353.850464,302.550995 368.319366,273.788544 385.013947,246.022079 
	C400.031952,221.044067 417.643219,198.131607 439.739685,178.925003 
	C454.326080,166.246292 470.302368,155.983170 489.001038,150.213150 
	C513.703857,142.590363 536.664124,147.352921 558.679382,159.346283 
	C584.395203,173.355682 604.255432,193.849625 621.354797,217.161667 
	C646.531555,251.485825 666.889587,288.367920 679.503296,329.244659 
	C690.709900,365.561310 686.841003,399.523712 663.860596,430.556183 
	C662.681519,432.148376 661.684326,433.875275 660.651245,435.464264 
	C661.497192,438.069702 663.744385,438.655457 665.583435,439.644836 
	C682.743774,448.876190 700.016296,457.902924 717.081116,467.306976 
	C744.875305,482.623749 763.460266,505.536194 773.720764,535.615662 
	C786.658325,573.543091 799.296021,611.559265 809.881470,650.214111 
	C816.357422,673.862122 817.387085,697.626648 806.941345,720.503235 
	C794.058960,748.716492 771.225952,764.871216 741.634521,772.238464 
	C733.067322,774.371460 724.353943,775.713013 715.558044,776.240295 
	C711.678772,776.472839 710.275635,778.026428 710.315308,781.777771 
	C710.438293,793.430908 710.160767,805.097900 708.317078,816.615479 
	C705.741211,832.706543 692.958252,843.295044 676.470764,843.302124 
	C616.480530,843.327698 556.490234,843.303772 495.999939,843.298767 
M692.665894,720.373779 
	C693.659241,708.958801 694.698059,697.547607 695.634216,686.127930 
	C696.774231,672.222229 697.790588,658.306396 698.929138,644.400574 
	C700.134766,629.674133 701.418152,614.954041 702.673523,600.231689 
	C703.463562,590.966125 704.007935,581.670105 705.137268,572.445862 
	C706.131958,564.322388 703.899475,561.338501 695.649475,561.337585 
	C574.197449,561.324768 452.745453,561.321411 331.293457,561.325378 
	C323.614197,561.325623 320.822388,564.218811 321.279694,572.087341 
	C321.838562,581.703369 322.584961,591.309998 323.369110,600.910950 
	C324.423157,613.816833 325.582886,626.714111 326.711945,639.613831 
	C327.913544,653.342651 329.184082,667.065674 330.328705,680.799194 
	C331.445801,694.202515 332.361389,707.622803 333.511200,721.023132 
	C335.043976,738.887146 336.884644,756.726807 338.204407,774.605591 
	C338.505585,778.685303 339.611145,780.069397 343.712006,780.058655 
	C370.528992,779.988647 397.347107,780.426025 424.160400,780.529419 
	C507.119568,780.849304 590.082031,780.953125 673.039978,779.973511 
	C676.205017,779.936096 679.377808,779.812683 682.534119,779.976929 
	C685.917664,780.152954 687.580444,779.250977 687.883484,775.374207 
	C689.293518,757.335999 691.033691,739.323608 692.665894,720.373779 
M568.492615,460.958130 
	C561.333130,469.565247 553.483215,477.465332 544.617615,484.331573 
	C524.879395,499.618469 505.363647,500.685699 484.683960,486.951080 
	C465.991821,474.536591 452.289948,457.329559 440.772125,438.411835 
	C423.010193,409.238373 411.580475,378.017395 411.575134,343.314240 
	C411.574554,339.571075 410.740967,335.828033 410.202759,331.322723 
	C394.593109,338.913147 379.698181,346.296600 370.618347,361.281952 
	C364.911163,370.701111 363.486603,380.901093 367.115295,391.478302 
	C370.038544,399.999115 373.490295,408.298920 378.952789,415.587189 
	C398.634857,441.847778 420.669861,465.783081 447.493103,484.996674 
	C451.347565,487.757629 454.534515,490.996338 455.668060,495.920471 
	C456.725220,500.512878 455.330475,504.153656 451.955444,507.089233 
	C448.415894,510.167847 444.309631,510.137024 440.278931,508.276764 
	C438.190399,507.312927 436.318207,505.825806 434.459290,504.427460 
	C416.428864,490.864319 400.113464,475.399811 384.780396,458.912079 
	C381.888763,455.802673 379.801880,455.694427 376.337463,457.560059 
	C359.182770,466.798157 341.986725,475.965790 324.665558,484.886963 
	C299.110626,498.048950 281.950439,518.048279 272.874237,545.457642 
	C262.523926,576.714844 252.031113,607.914368 243.218109,639.651672 
	C239.215210,654.066956 235.047668,668.382690 235.015839,683.601135 
	C234.967773,706.569641 243.321838,725.122559 262.563110,738.158508 
	C273.344940,745.463196 285.549377,749.350464 298.264557,751.624207 
	C303.066132,752.482910 307.862488,753.937805 313.100128,753.365051 
	C312.862000,748.684448 312.763062,744.387085 312.403992,740.111572 
	C311.208740,725.879028 309.894775,711.656433 308.674774,697.425903 
	C307.553711,684.349243 306.542206,671.263184 305.397675,658.188660 
	C303.862305,640.649231 302.224548,623.118835 300.671844,605.580933 
	C299.836823,596.149719 299.711517,586.607971 298.175293,577.296082 
	C294.522705,555.155579 307.998077,538.653076 330.404572,538.651978 
	C452.219757,538.645996 574.034912,538.649231 695.850098,538.649719 
	C697.016602,538.649719 698.183472,538.634460 699.349487,538.660583 
	C715.717712,539.027771 728.220825,551.822876 728.358765,568.171265 
	C728.436096,577.346863 727.032227,586.395020 726.323914,595.502136 
	C725.306152,608.587769 724.216370,621.668030 723.097595,634.745544 
	C721.879944,648.979309 720.602539,663.208008 719.335571,677.437561 
	C718.112732,691.170593 716.814148,704.897217 715.654358,718.635498 
	C714.787842,728.898499 714.108398,739.177063 713.302429,749.445374 
	C713.080078,752.278259 713.798828,754.098511 717.117432,753.535278 
	C729.913757,751.363342 742.700928,749.105469 754.542297,743.443542 
	C773.424194,734.414856 785.734741,720.155884 790.034790,699.276489 
	C792.992981,684.911987 791.867371,670.787537 788.162598,656.840210 
	C777.696411,617.438416 764.356995,578.944946 750.887451,540.499512 
	C743.592651,519.678284 731.138550,502.864471 712.133850,491.276062 
	C691.207886,478.516113 668.789185,468.527527 647.435913,456.559662 
	C644.738708,455.047974 643.517944,456.851593 642.021973,458.398956 
	C630.321960,470.500519 618.244202,482.213867 605.530701,493.247162 
	C599.502014,498.479126 593.627380,504.005432 586.633484,507.940002 
	C578.848511,512.319519 570.664856,507.244049 570.645813,498.374542 
	C570.633911,492.822906 573.516296,488.845734 577.732666,485.857635 
	C595.794861,473.057037 611.449097,457.592010 626.170288,441.248047 
	C639.196228,426.786194 651.985779,412.007874 658.334656,392.946991 
	C663.216370,378.290863 660.434387,365.500610 650.213989,354.084717 
	C641.092041,343.895874 629.103821,338.018616 617.253967,331.918823 
	C616.915466,331.744537 616.337402,332.035492 615.055908,332.238892 
	C615.120544,380.395050 599.337341,423.074585 568.492615,460.958130 
M537.726929,284.635712 
	C542.023804,285.022644 546.348694,285.214508 550.613159,285.827240 
	C586.387207,290.967407 619.557983,302.934692 649.357544,323.684906 
	C650.621338,324.564941 651.853821,325.767059 654.059814,325.285583 
	C652.932434,322.116882 652.044861,319.264069 650.917725,316.509216 
	C638.565247,286.316803 622.754883,258.034882 603.466858,231.742844 
	C588.487427,211.323944 571.397766,193.080566 549.252869,180.075104 
	C524.486206,165.529831 500.087616,165.998962 475.625916,180.782227 
	C465.148132,187.114426 455.487457,194.502914 447.004395,203.220551 
	C414.610535,236.509979 391.452667,275.720642 374.049866,318.528809 
	C373.102448,320.859314 371.772430,323.187500 372.103455,325.911835 
	C374.368652,326.008270 375.470184,324.578003 376.816010,323.679901 
	C394.771515,311.697632 413.828400,301.923645 434.372223,295.201691 
	C452.118713,289.395050 470.323914,285.971069 488.965851,284.546936 
	C504.935760,283.326935 520.860962,283.075806 537.726929,284.635712 
M352.522491,803.281128 
	C351.855957,803.280457 351.189453,803.279602 350.522919,803.279175 
	C339.271912,803.272461 339.381683,803.257141 340.994843,814.748901 
	C341.507599,818.401550 343.553406,820.003967 346.781372,820.535034 
	C348.407532,820.802673 350.106140,820.653137 351.771973,820.653198 
	C459.428741,820.657898 567.085510,820.658997 674.742310,820.655701 
	C676.241089,820.655701 677.778198,820.799316 679.230591,820.523682 
	C682.258301,819.949097 684.596069,818.246704 684.848511,815.013611 
	C685.140930,811.267456 685.486938,807.458008 684.614197,803.281921 
	C574.098389,803.281921 463.807159,803.281921 352.522491,803.281128 
z"/>
<path fill="#000000" opacity="1.000000" stroke="none" 
	d="
M444.868774,707.873352 
	C439.323120,713.176025 434.078583,718.283386 428.720825,723.269104 
	C422.857056,728.725586 415.832214,728.681030 411.091553,723.294678 
	C406.409760,717.975220 407.196259,712.372192 413.027100,706.747131 
	C424.043823,696.119141 434.837646,685.259155 445.915497,674.696350 
	C448.757568,671.986389 448.259094,670.328796 445.803436,667.819580 
	C434.747894,656.522766 423.834991,645.086121 412.901886,633.669922 
	C409.981079,630.620056 407.286133,627.335815 408.046631,622.715942 
	C408.792450,618.185181 410.870941,614.638794 415.722687,613.254272 
	C420.361023,611.930664 424.273346,612.981567 427.567993,616.368103 
	C440.793488,629.962524 453.997833,643.577637 467.183167,657.211060 
	C469.146393,659.241028 471.160492,661.268616 472.813873,663.542419 
	C477.055206,669.375305 476.460114,676.581238 471.384003,681.645386 
	C462.666443,690.342285 453.878418,698.968567 444.868774,707.873352 
z"/>
<path fill="#000000" opacity="1.000000" stroke="none" 
	d="
M486.644104,711.054688 
	C507.798309,709.406372 528.587158,709.732849 549.359070,710.674438 
	C556.828430,711.012939 560.831604,715.760925 560.559143,722.587280 
	C560.312744,728.759827 555.085571,733.303406 547.960571,733.320618 
	C529.149963,733.366150 510.339172,733.353699 491.528503,733.318665 
	C484.965485,733.306458 480.226654,730.075745 478.897644,724.881958 
	C477.476746,719.329102 480.018616,714.608215 486.644104,711.054688 
z"/>
</svg>