<svg version="1.1" id="Layer_1" xmlns="http://www.w3.org/2000/svg" xmlns:xlink="http://www.w3.org/1999/xlink" x="0px" y="0px"
	 width="100%" viewBox="0 0 1024 1024" enable-background="new 0 0 1024 1024" xml:space="preserve">
<path fill="#000000" opacity="1.000000" stroke="none" 
	d="
M669.657227,384.790405 
	C669.655884,367.485779 669.634827,350.652557 669.660339,333.819397 
	C669.673889,324.906891 673.902832,320.673340 682.801758,320.661255 
	C700.301514,320.637543 717.801270,320.634308 735.300964,320.669617 
	C744.731262,320.688629 749.156311,325.350952 749.382324,334.826141 
	C749.768066,350.999725 748.430054,367.129639 748.380493,383.287811 
	C748.356628,391.072662 748.452087,391.011505 755.969666,391.057556 
	C784.297119,391.231110 812.625061,391.377594 840.951355,391.674469 
	C859.008240,391.863678 875.646606,407.639862 877.301636,426.031403 
	C877.748596,430.998108 877.937988,436.004303 877.939087,440.992401 
	C877.964233,558.657959 877.883362,676.323608 878.017578,793.989014 
	C878.034729,809.027161 874.117737,821.828796 861.727051,831.277649 
	C854.981567,836.421631 847.376282,839.243958 839.050537,839.247986 
	C774.051453,839.279419 709.051086,839.318665 644.053955,838.908386 
	C625.897644,838.793762 607.754456,837.971252 589.605652,839.148926 
	C583.270081,839.559937 576.927063,839.387390 570.707275,838.028870 
	C554.214661,834.426514 542.147949,819.482239 541.631714,802.436096 
	C540.253967,756.948120 541.300720,711.450500 541.020569,665.958252 
	C540.881958,643.459473 540.668030,620.952515 541.099121,598.460938 
	C541.785828,562.632385 541.833069,526.803955 541.491943,490.979156 
	C541.312683,472.151520 541.126160,453.324890 541.053833,434.496002 
	C540.997375,419.799622 545.382019,407.348175 558.046387,398.715363 
	C566.272644,393.107788 575.676025,391.879486 585.184265,391.732391 
	C611.334778,391.327698 637.490540,391.198578 663.644531,391.141663 
	C667.984375,391.132202 670.456665,390.100006 669.657227,384.790405 
M563.349304,597.499939 
	C563.349304,652.657288 563.348938,707.814697 563.349548,762.972046 
	C563.349731,774.136841 563.236145,785.303162 563.385437,796.466003 
	C563.577209,810.804077 570.447327,817.602600 584.699707,817.614563 
	C590.522156,817.619507 596.344421,817.069641 602.167419,817.055969 
	C671.821228,816.892761 741.475159,816.781372 811.129089,816.660828 
	C819.960938,816.645569 828.795410,816.790955 837.624023,816.620178 
	C850.500183,816.371277 856.731201,810.084473 856.639709,797.415100 
	C856.278687,747.433411 856.716248,697.453979 856.083801,647.466064 
	C855.213074,578.654907 855.769409,509.825714 855.715454,441.004242 
	C855.712158,436.838348 855.805908,432.670227 855.700500,428.507050 
	C855.529358,421.749451 852.272766,417.468750 845.843140,415.797638 
	C842.965088,415.049652 839.955322,414.434601 837.000732,414.413727 
	C809.340210,414.218445 781.678345,414.212616 754.017822,414.015869 
	C750.196350,413.988708 749.158875,415.546539 749.257568,419.105560 
	C749.460815,426.432281 749.419678,433.769287 749.318420,441.099854 
	C749.220886,448.155334 744.459717,452.810699 737.466980,453.361176 
	C719.666870,454.762512 701.840271,454.378784 684.019470,454.315308 
	C674.897583,454.282806 669.770264,449.125427 669.670654,440.087219 
	C669.593506,433.089233 669.490051,426.084442 669.717468,419.093079 
	C669.836304,415.439514 668.570679,414.214294 664.905457,414.007843 
	C637.105408,412.441956 609.290100,414.351288 581.483154,413.501587 
	C572.745422,413.234589 566.077759,419.662384 564.285095,428.123962 
	C563.590271,431.403656 563.325134,434.679413 563.327148,438.026489 
	C563.359009,490.850952 563.349731,543.675415 563.349304,597.499939 
M727.103088,431.517853 
	C727.278076,430.715240 727.605225,429.912781 727.606018,429.109985 
	C727.632202,401.633118 727.596008,374.156097 727.668762,346.679413 
	C727.677490,343.389771 726.329407,342.295685 723.181641,342.335785 
	C714.357117,342.448090 705.525818,342.541199 696.706238,342.305145 
	C692.533569,342.193451 691.232666,343.713043 691.278992,347.809692 
	C691.457581,363.627777 691.349670,379.449036 691.349915,395.269135 
	C691.350159,406.259918 691.347412,417.250732 691.358765,428.241516 
	C691.360840,430.253265 691.153259,432.609558 694.108887,432.571533 
	C704.904724,432.432800 715.715820,433.288910 727.103088,431.517853 
z"/>
<path fill="#000000" opacity="1.000000" stroke="none" 
	d="
M232.781128,543.918457 
	C216.113052,552.178345 199.292435,558.669922 180.934402,560.508850 
	C176.286987,560.974365 172.227646,560.807678 169.655518,556.355530 
	C167.546707,552.705444 168.697708,546.692017 172.000076,542.860474 
	C175.117584,539.243286 179.363373,537.513062 183.804092,536.876892 
	C212.080887,532.825867 235.377548,519.274536 256.003326,500.127777 
	C274.030701,483.393005 288.450775,464.522827 295.056396,440.330841 
	C300.461975,420.533783 303.041870,400.352081 304.756104,379.969421 
	C306.284241,361.799286 313.776093,346.075165 325.676819,332.344513 
	C340.067413,315.741150 357.682037,304.897949 379.730377,302.069489 
	C412.618835,297.850433 444.565491,312.286194 461.315674,339.263672 
	C475.404083,361.954163 476.486816,386.136444 474.644684,411.407837 
	C472.858246,435.915100 467.765045,459.702423 460.402405,483.056213 
	C444.575043,533.259583 417.612732,576.705566 380.649109,614.051819 
	C351.747528,643.252625 317.856628,664.822937 279.880310,680.240845 
	C257.794952,689.207275 235.364304,696.951599 211.747940,700.754333 
	C206.177902,701.651245 200.577805,702.496887 194.888702,702.370422 
	C188.765839,702.234314 185.708481,700.098938 184.607803,695.018433 
	C183.425674,689.562012 185.901932,684.683777 191.088486,682.405334 
	C195.866272,680.306641 201.038177,679.722778 206.102402,678.948853 
	C250.256897,672.201355 289.390350,653.763367 326.698029,629.761047 
	C353.832214,612.303894 374.245453,588.845947 393.536438,563.867065 
	C422.957031,525.771973 440.009979,482.387970 448.839142,435.380463 
	C451.946411,418.836975 453.608368,402.157867 454.499634,385.432251 
	C455.582550,365.109985 445.110474,349.932281 430.651093,337.042969 
	C411.108765,319.622681 377.233459,318.923218 352.662476,336.057861 
	C335.697266,347.888550 327.410004,364.022552 326.390656,384.070435 
	C324.858398,414.205658 319.848175,443.492126 307.468658,471.237671 
	C304.184509,478.598267 299.956818,485.375366 294.845978,491.549103 
	C277.396515,512.627686 257.971558,531.410889 232.781128,543.918457 
z"/>
<path fill="#000000" opacity="1.000000" stroke="none" 
	d="
M273.201294,196.110291 
	C299.670258,179.647736 327.750214,168.321991 358.351379,164.033417 
	C377.664307,161.326843 397.042603,161.076416 416.523285,163.474915 
	C455.413910,168.263245 490.608612,182.119797 521.723328,205.796890 
	C561.503662,236.068192 587.549866,275.799561 601.293701,323.767090 
	C604.732605,335.769379 606.970642,347.999359 609.049561,360.272644 
	C609.989807,365.823364 607.071106,370.786804 602.297424,372.178650 
	C595.735962,374.091797 590.489502,372.160309 588.049500,366.557465 
	C585.031860,359.628113 584.278442,352.130280 583.267334,344.740906 
	C580.631897,325.479095 573.455017,307.816650 564.173157,290.967285 
	C547.786072,261.219818 526.825745,235.476715 497.913361,216.900055 
	C473.230438,201.040894 446.531647,190.756363 417.406128,186.264679 
	C387.651459,181.675995 358.863495,185.046768 330.278534,193.616776 
	C293.509918,204.640259 264.726135,227.008438 240.789307,256.121979 
	C221.941040,279.046478 208.639877,305.146912 201.122421,333.808258 
	C197.045609,349.351624 195.084824,365.442749 195.323532,381.668488 
	C195.442642,389.765015 193.418900,392.323578 186.758133,393.196625 
	C180.095123,394.069946 176.108139,391.194153 174.631256,383.670685 
	C172.423767,372.425415 173.589386,361.138763 175.133057,349.922913 
	C178.571014,324.943573 186.998199,301.485474 198.055328,279.026001 
	C214.145676,246.342987 238.137451,220.394913 267.931580,199.666367 
	C269.571838,198.525208 271.238281,197.421707 273.201294,196.110291 
z"/>
<path fill="#000000" opacity="1.000000" stroke="none" 
	d="
M176.260712,492.363495 
	C170.106979,491.782135 168.691238,487.466797 167.928619,482.888062 
	C167.179901,478.392853 170.031128,473.328247 174.177917,471.306213 
	C175.811295,470.509735 177.574356,469.926971 179.333054,469.447510 
	C203.675095,462.811188 218.660019,446.039459 228.253571,423.753143 
	C234.138214,410.082794 236.899628,395.772003 237.936386,380.751465 
	C241.955124,322.527252 267.990845,277.084351 319.798798,248.746262 
	C337.201019,239.227524 356.856049,234.376724 376.998474,232.536682 
	C417.483856,228.838272 453.945648,239.018753 485.751221,264.279572 
	C515.591003,287.979034 531.910339,320.014130 540.311646,356.581268 
	C543.013489,368.340973 543.674683,380.238647 543.371338,392.249207 
	C543.184082,399.666840 539.644592,403.362091 532.402283,403.344757 
	C525.254089,403.327637 521.890686,399.607391 521.617554,392.007996 
	C521.128784,378.409637 521.261292,364.746399 516.841003,351.575897 
	C499.593445,300.185974 466.280579,265.994324 411.878418,255.909088 
	C388.402954,251.557144 365.052490,253.806732 342.393555,263.214905 
	C301.969635,279.999268 276.385040,309.343567 265.043945,351.291046 
	C261.963562,362.684540 261.169830,374.549896 260.416870,386.292297 
	C257.627869,429.786652 239.453979,463.813202 200.322021,485.070526 
	C192.999176,489.048431 185.187805,491.946289 176.260712,492.363495 
z"/>
<path fill="#000000" opacity="1.000000" stroke="none" 
	d="
M366.528595,467.637695 
	C376.798767,440.121979 380.504211,411.996857 379.695221,383.140289 
	C379.460022,374.751190 383.762604,371.028503 392.159058,371.694153 
	C398.093292,372.164612 400.859619,374.656891 401.393341,380.665344 
	C404.373779,414.217987 399.145264,446.631622 387.229950,477.990448 
	C363.371948,540.780151 319.351685,585.108521 259.743164,614.155640 
	C234.981491,626.221985 208.329147,633.233887 180.375641,633.292480 
	C170.010040,633.314209 164.748825,624.923096 169.484940,616.474915 
	C171.779221,612.382446 175.690765,610.920898 179.949905,610.727905 
	C230.555344,608.435852 272.645905,587.057739 309.515747,553.553894 
	C335.689789,529.769531 354.990265,501.545044 366.528595,467.637695 
z"/>
<path fill="#000000" opacity="1.000000" stroke="none" 
	d="
M295.136841,747.268311 
	C278.779236,754.433777 262.529785,760.765747 245.438065,764.675781 
	C238.658081,766.226807 232.431351,763.159546 230.831665,757.592163 
	C228.778305,750.445801 231.761276,744.903748 239.273483,742.640076 
	C257.435364,737.167542 275.568665,731.616272 292.802307,723.573303 
	C312.213867,714.513916 329.997559,702.834167 346.729553,689.518372 
	C358.984650,679.765442 372.616119,674.018127 388.571014,674.655151 
	C404.291229,675.282837 417.341095,682.207581 429.164154,691.876404 
	C445.660797,705.367249 461.765259,719.387573 480.791412,729.374084 
	C487.273987,732.776733 493.845886,736.015869 500.445648,739.186890 
	C507.810638,742.725464 510.612305,748.784180 507.730713,755.364380 
	C505.159027,761.236877 497.569672,763.247375 490.448486,759.958557 
	C463.169830,747.360107 438.410065,730.954956 416.449646,710.451599 
	C407.442810,702.042480 397.620758,696.530457 384.785645,697.189514 
	C376.762390,697.601501 369.948700,700.216553 363.794281,705.214355 
	C342.881104,722.197327 320.382904,736.620117 295.136841,747.268311 
z"/>
<path fill="#000000" opacity="1.000000" stroke="none" 
	d="
M304.379364,805.284790 
	C301.797546,796.222595 303.400360,792.870056 311.380310,789.038696 
	C329.671844,780.256592 348.237762,772.088501 365.513489,761.219299 
	C378.685547,752.932068 393.202820,752.601685 406.099945,761.303589 
	C419.903839,770.617432 433.828705,779.686584 447.991486,788.425720 
	C452.906342,791.458313 454.645691,796.932983 452.915344,802.382263 
	C451.361511,807.275696 447.262726,809.627319 441.053223,809.346985 
	C437.924042,809.205688 435.298767,807.810059 432.690308,806.340454 
	C421.212433,799.874329 410.244385,792.540466 399.922638,784.444519 
	C390.072662,776.718567 380.951263,777.686157 370.934235,783.491760 
	C354.664520,792.921265 338.280365,802.183411 320.988708,809.661682 
	C313.160095,813.047424 308.742676,811.794250 304.379364,805.284790 
z"/>
<path fill="#000000" opacity="1.000000" stroke="none" 
	d="
M447.092102,604.857788 
	C448.273468,606.515137 449.382355,607.797119 450.151825,609.257996 
	C465.059540,637.561401 489.227570,655.872314 516.534607,670.772827 
	C520.344482,672.851807 523.586670,675.217957 524.265991,679.862061 
	C525.752747,690.026489 517.430359,696.400696 507.703857,692.276611 
	C497.686279,688.029114 489.052521,681.410950 479.959930,675.551331 
	C459.819153,662.571899 443.818237,645.807739 432.006622,625.004150 
	C430.446777,622.256836 428.871521,619.502380 427.557983,616.634583 
	C424.946594,610.933044 425.577545,606.029602 429.109314,602.833618 
	C432.145538,600.086060 439.436798,599.683350 443.723236,602.127258 
	C444.862427,602.776794 445.820435,603.744202 447.092102,604.857788 
z"/>
<path fill="#000000" opacity="1.000000" stroke="none" 
	d="
M525.377686,600.776733 
	C519.027100,601.485352 514.276367,598.964600 510.468445,594.711060 
	C495.053101,577.491760 485.857666,557.297546 483.425903,534.384155 
	C482.536499,526.003784 483.893555,521.683655 492.118652,519.326721 
	C497.831726,517.689514 501.131378,519.234436 502.823029,524.926575 
	C504.804810,531.595154 506.160217,538.439514 508.576385,544.995117 
	C513.509949,558.380798 520.399109,570.595947 529.687317,581.470276 
	C536.288879,589.199219 534.598572,597.068359 525.377686,600.776733 
z"/>
<path fill="#000000" opacity="1.000000" stroke="none" 
	d="
M742.999878,708.379150 
	C710.167480,708.376282 677.835083,708.325256 645.502991,708.412842 
	C639.351318,708.429504 633.203857,709.170044 627.049622,709.263916 
	C618.233887,709.398499 613.591187,704.904602 613.695618,696.179993 
	C613.864380,682.085754 612.888184,668.019409 616.540466,654.013611 
	C624.062988,625.165710 643.949219,609.463684 670.894653,600.730164 
	C672.145203,600.324829 673.485962,600.242065 674.817566,599.057800 
	C669.840942,594.661377 664.816284,590.406494 660.555237,585.314087 
	C637.987366,558.343445 650.309265,502.095337 694.248901,492.595825 
	C726.006592,485.729980 751.293518,500.158966 764.027893,523.527954 
	C775.060730,543.774353 773.246277,577.706177 748.016174,595.661865 
	C746.680481,596.612488 745.403320,597.645264 743.788879,598.876160 
	C745.962280,601.028748 748.607483,600.931641 750.869446,601.628357 
	C777.676636,609.885071 795.454346,627.545105 802.452454,654.478577 
	C805.934448,667.879517 805.838135,682.205994 805.062683,696.189453 
	C804.616699,704.231445 799.589905,708.340759 791.498596,708.359802 
	C775.499084,708.397583 759.499451,708.376160 742.999878,708.379150 
M676.452148,618.025208 
	C651.148071,631.062988 634.211365,649.605530 635.323608,680.165649 
	C635.558838,686.627625 635.362976,686.645508 642.067322,686.646057 
	C686.545593,686.649536 731.023865,686.648315 775.502136,686.646423 
	C776.834595,686.646362 778.167175,686.627502 779.499573,686.606934 
	C781.519836,686.575806 782.604614,685.554871 782.599487,683.523865 
	C782.579773,675.725830 783.294189,667.884888 780.876465,660.248230 
	C773.910034,638.243652 757.903076,625.563293 737.261719,617.427917 
	C724.117126,612.247131 710.420227,613.769714 696.850098,613.316711 
	C689.836914,613.082703 683.316467,614.510254 676.452148,618.025208 
M731.695374,582.206299 
	C745.649841,572.215149 749.376221,557.985962 747.093018,542.066467 
	C744.969421,527.259766 734.948730,518.231323 721.143005,514.743103 
	C705.020935,510.669647 690.334167,514.881775 678.999451,527.558716 
	C670.913513,536.602112 671.516418,547.874512 672.935791,558.861389 
	C674.057861,567.547363 678.235474,574.971436 685.141235,580.552002 
	C698.831726,591.615295 714.797363,592.280640 731.695374,582.206299 
z"/>
<path fill="#000000" opacity="1.000000" stroke="none" 
	d="
M734.000122,745.676025 
	C751.318542,745.676514 768.137329,745.738342 784.955078,745.630127 
	C788.654236,745.606323 792.253845,746.078857 795.835327,746.767822 
	C801.820190,747.919067 805.503540,752.464783 805.100281,757.939453 
	C804.655701,763.975403 800.709229,767.372437 793.929688,767.379089 
	C767.120117,767.405334 740.309937,767.273560 713.501221,767.425232 
	C684.701782,767.588135 655.904236,768.067688 627.104858,768.272888 
	C617.385498,768.342163 612.778687,763.221863 613.691589,753.942078 
	C614.108093,749.707520 616.482178,747.240784 620.647339,746.723633 
	C623.941956,746.314514 627.275085,746.034973 630.592590,746.020264 
	C664.894958,745.867920 699.197510,745.781250 734.000122,745.676025 
z"/>
</svg>