<svg version="1.1" id="Layer_1" xmlns="http://www.w3.org/2000/svg" xmlns:xlink="http://www.w3.org/1999/xlink" x="0px" y="0px"
	 width="100%" viewBox="0 0 1024 1024" enable-background="new 0 0 1024 1024" xml:space="preserve">
<path fill="#000000" opacity="1.000000" stroke="none" 
	d="
M403.128845,564.871399 
	C420.773804,583.076355 439.690918,599.517395 456.297821,618.214233 
	C468.269958,631.692993 481.649414,643.750183 493.966980,656.861816 
	C495.794525,658.807190 497.943298,658.901428 500.342529,658.894104 
	C529.674316,658.804626 559.006470,658.692078 588.338074,658.764771 
	C597.658142,658.787842 606.976990,659.337585 616.296204,659.652954 
	C630.665710,660.139160 642.405273,654.110840 652.860107,644.899658 
	C653.609924,644.239075 654.335266,643.550598 655.072571,642.875732 
	C660.350098,638.045044 665.966858,637.263611 669.775879,640.829834 
	C674.747131,645.484192 675.272827,653.162903 670.471008,658.380249 
	C660.295105,669.436829 647.975891,677.117188 633.170959,680.284119 
	C619.513855,683.205322 605.653931,682.071777 591.860107,681.685913 
	C568.533508,681.033325 545.206726,681.408264 521.879700,681.471436 
	C521.268311,681.473083 520.657593,681.717346 518.995361,682.073975 
	C524.497437,687.482239 529.460022,692.334595 534.394836,697.215088 
	C566.738770,729.203186 599.058044,761.216248 631.440369,793.165466 
	C635.437561,797.109009 637.760315,801.489197 635.645813,807.014587 
	C633.495605,812.633240 628.848999,814.934387 623.044128,815.169250 
	C621.545959,815.229919 620.045227,815.245544 618.545532,815.248291 
	C593.713257,815.293396 568.880920,815.370178 544.048645,815.367798 
	C434.386169,815.357178 324.723663,815.324402 215.061172,815.296570 
	C202.442673,815.293396 198.730194,811.542664 198.724182,798.892822 
	C198.706512,761.727844 198.623856,724.562744 198.726486,687.398071 
	C198.738068,683.202698 197.942810,681.506042 193.164062,680.921326 
	C164.907806,677.464111 147.003464,661.379944 138.436020,634.528015 
	C137.223663,630.728271 136.633072,626.797180 136.634323,622.756287 
	C136.676270,487.594696 136.662857,352.433105 136.717041,217.271500 
	C136.729385,186.483917 154.853546,161.980850 183.109985,154.297684 
	C189.220795,152.636093 195.477249,151.732056 201.825211,151.731644 
	C339.652832,151.722809 477.480560,151.636475 615.307922,151.825562 
	C635.936218,151.853882 654.737610,157.514389 669.089417,173.727051 
	C681.067017,187.257736 685.501831,203.131760 684.257568,220.829987 
	C683.845093,226.697327 679.004272,231.319733 673.965576,231.155258 
	C668.243530,230.968475 663.214783,225.638153 662.701477,219.090591 
	C662.416565,215.455627 662.593262,211.838577 661.910461,208.171585 
	C658.690735,190.880051 647.365417,179.078003 629.951233,175.442337 
	C626.866089,174.798248 623.764099,174.331696 620.558289,174.332458 
	C579.060242,174.342377 537.562195,174.268234 496.064117,174.222397 
	C489.370087,174.214996 489.355927,174.230850 489.353638,180.693207 
	C489.346405,201.359100 489.350677,222.024994 489.350494,242.690887 
	C489.350494,244.324753 489.350464,245.958633 489.350464,247.988541 
	C494.363098,247.151199 498.231934,244.825958 502.265533,243.075195 
	C522.685852,234.211853 543.869751,227.929642 566.019043,225.816483 
	C635.210510,219.215240 694.347229,240.405075 742.284607,291.150238 
	C771.359924,321.928589 788.385986,358.713867 795.481750,400.333313 
	C798.722717,419.342743 799.223755,438.397980 797.200439,457.489655 
	C794.145996,486.309906 784.770020,513.192627 771.207947,538.686707 
	C767.767395,545.154175 764.293091,551.608887 760.611450,557.939880 
	C759.382019,560.054016 759.489319,561.471008 761.116760,563.205200 
	C768.184021,570.735840 775.164124,578.348267 782.187073,585.920715 
	C783.570190,587.412109 784.907349,588.309143 787.350464,587.932068 
	C796.220032,586.562988 803.565430,589.904785 810.073853,595.829834 
	C819.718140,604.609680 827.249451,615.359680 836.630798,624.323181 
	C859.768250,646.429932 882.221802,669.221069 904.970154,691.717346 
	C917.856323,704.460815 925.346252,719.503052 925.341675,737.874146 
	C925.335938,761.001648 908.823914,782.388245 885.058228,789.166504 
	C864.931824,794.906799 846.443848,790.849487 831.459839,776.205750 
	C799.522278,744.993408 768.088501,713.264526 736.552307,681.643616 
	C730.068237,675.142029 724.092346,668.173279 722.128784,658.721008 
	C721.644714,656.390625 721.031189,653.843445 721.973511,651.840149 
	C723.639221,648.298950 722.511353,645.856873 720.142029,643.426147 
	C712.351440,635.433411 704.536621,627.463684 696.812317,619.407227 
	C694.265015,616.750305 691.963684,616.535217 688.553955,618.267761 
	C668.281799,628.567749 647.080261,636.265991 624.510742,639.726624 
	C606.858215,642.433350 589.177795,643.039734 571.302490,641.526306 
	C529.688293,638.002930 493.000885,622.520630 460.563873,596.730042 
	C426.200165,569.407471 402.908905,534.336548 389.767059,492.541168 
	C388.187317,487.517029 386.330872,485.015778 380.428467,484.794128 
	C362.302002,484.113495 344.210785,484.523560 326.106262,484.703552 
	C325.778748,485.150482 325.451233,485.597382 325.123749,486.044312 
	C351.042389,512.231262 376.961029,538.418274 403.128845,564.871399 
M407.241394,602.255249 
	C389.071320,583.907776 371.051788,565.407898 352.686066,547.258484 
	C336.450317,531.213928 321.196716,514.259644 305.498322,497.716675 
	C293.123291,484.675812 280.151794,472.195862 267.007233,459.893738 
	C252.418045,446.239532 240.073776,430.369415 225.513077,416.648102 
	C224.125336,415.340393 222.988464,413.670258 220.331406,413.006439 
	C220.331406,415.570129 220.323120,417.693512 220.332581,419.816833 
	C220.806625,526.114746 219.456635,632.416260 221.024979,738.713196 
	C221.258316,754.528015 220.562729,770.355530 220.364700,786.178040 
	C220.283020,792.704712 220.364426,792.712219 226.992432,792.713623 
	C282.647919,792.725159 338.303436,792.731079 393.958923,792.744934 
	C458.112396,792.760864 522.265869,792.796448 586.419373,792.767212 
	C589.985474,792.765564 593.658325,793.308044 597.241577,791.993713 
	C597.081543,791.235596 597.141785,790.613953 596.860352,790.325073 
	C593.260376,786.629822 589.614624,782.978882 585.974426,779.322754 
	C526.968140,720.057800 465.880310,662.894226 407.241394,602.255249 
M586.466309,619.640503 
	C597.112610,619.408936 607.657532,618.216064 618.214600,616.819153 
	C657.688965,611.595581 691.629700,594.391785 719.137207,566.377319 
	C763.813232,520.877869 783.641785,466.104492 772.650330,402.305450 
	C763.616394,349.868744 736.611755,308.336365 692.282288,278.593506 
	C672.751831,265.489563 651.224548,257.482361 628.038940,252.466827 
	C604.610107,247.398636 581.373779,246.589691 558.219727,250.743973 
	C511.130554,259.192719 472.641876,282.439240 443.255493,320.616669 
	C420.357727,350.364380 407.511261,383.850891 404.464569,421.097565 
	C402.979431,439.253296 404.793365,457.271851 408.986053,475.008759 
	C417.191803,509.722870 433.690887,539.981995 459.030762,565.047058 
	C493.990692,599.627869 536.016907,618.417603 586.466309,619.640503 
M159.348953,297.296753 
	C158.510605,302.327942 160.540573,303.796875 165.650772,303.773438 
	C209.134262,303.574097 252.619034,303.660278 296.103424,303.650970 
	C302.629181,303.649567 302.636688,303.625824 302.649109,296.941315 
	C302.721924,257.789093 302.725220,218.636505 302.953400,179.485199 
	C302.978851,175.115433 301.373993,174.147797 297.414062,174.167389 
	C264.926544,174.328049 232.437271,174.208847 199.950668,174.455719 
	C189.144989,174.537842 179.405212,178.074890 171.347519,185.637177 
	C162.444672,193.992645 159.493073,204.737381 159.409866,216.373276 
	C159.219284,243.029022 159.349411,269.687042 159.348953,297.296753 
M416.500061,174.361847 
	C387.853333,174.319077 359.206451,174.305710 330.559998,174.192993 
	C327.300232,174.180176 325.272034,174.516647 325.284149,178.665756 
	C325.401337,218.804443 325.385498,258.943665 325.296631,299.082520 
	C325.288910,302.566772 326.483368,303.728851 329.930817,303.718170 
	C361.075745,303.621460 392.221130,303.633514 423.366272,303.669220 
	C425.709198,303.671906 427.430664,303.021729 428.960480,301.135590 
	C439.388947,288.278229 451.397491,277.002869 464.210938,266.580933 
	C466.622528,264.619415 467.725098,262.589050 467.711456,259.418427 
	C467.597595,232.937134 467.557220,206.454651 467.719513,179.973907 
	C467.746460,175.572937 466.317719,174.209702 461.968262,174.273849 
	C447.148346,174.492340 432.323212,174.360748 416.500061,174.361847 
M159.348877,432.499908 
	C159.348999,440.661041 159.556152,448.829529 159.264847,456.980255 
	C159.111404,461.273438 160.326645,462.910858 164.847092,462.746735 
	C173.663055,462.426666 182.498764,462.653931 191.326294,462.648163 
	C198.641525,462.643372 198.648376,462.639343 198.651199,455.210815 
	C198.659683,432.892151 198.716599,410.573303 198.626663,388.255005 
	C198.605820,383.084900 200.379456,379.141327 205.060776,376.819702 
	C209.753937,374.492340 214.111099,375.400208 218.021973,378.704620 
	C220.180420,380.528381 222.342911,382.363953 224.344406,384.354218 
	C248.789124,408.662170 273.193634,433.010529 297.656891,457.299744 
	C298.965332,458.598816 300.102966,460.336487 302.649536,460.982849 
	C302.649536,458.883362 302.649475,457.245605 302.649567,455.607849 
	C302.652222,414.301666 302.571350,372.995117 302.763977,331.689819 
	C302.787903,326.561890 301.187653,325.231445 296.200134,325.251984 
	C252.729446,325.431122 209.257706,325.357330 165.786285,325.361572 
	C159.355850,325.362213 159.348389,325.369110 159.348007,332.065216 
	C159.346115,365.210114 159.348480,398.354980 159.348877,432.499908 
M838.259583,752.241089 
	C840.279480,754.455078 842.155090,756.824463 844.343933,758.856445 
	C854.116028,767.928162 865.523376,772.559937 878.639343,768.368958 
	C900.355896,761.429871 913.199890,737.119507 895.172913,715.099121 
	C891.915344,711.119873 888.160767,707.538269 884.542114,703.865051 
	C857.322205,676.234741 828.733398,649.968323 802.411011,621.444031 
	C799.490051,618.278687 797.042236,614.712708 793.358582,612.224609 
	C791.207520,610.771606 789.632507,610.543518 787.631775,612.279480 
	C773.525879,624.518372 760.894226,638.255615 747.772095,651.491089 
	C745.117737,654.168335 744.706299,657.217468 747.826660,660.191162 
	C750.230957,662.482361 752.328674,665.091797 754.677002,667.445618 
	C782.540161,695.374451 811.010559,722.703979 838.259583,752.241089 
M331.680725,326.061066 
	C328.623962,326.172272 325.274750,325.248718 325.289429,330.474152 
	C325.409271,373.118195 325.370544,415.762787 325.324036,458.407104 
	C325.320923,461.252838 326.102814,462.704254 329.268707,462.687164 
	C345.759644,462.598206 362.251495,462.597626 378.742432,462.686493 
	C381.824280,462.703125 382.991333,461.504242 382.675171,458.519501 
	C382.307953,455.053040 381.923157,451.581757 381.750824,448.102417 
	C380.168884,416.168121 383.741791,385.027191 396.453339,355.372589 
	C400.689026,345.491119 405.265533,335.755768 409.859558,325.569336 
	C383.829834,324.538055 358.238678,326.845154 331.680725,326.061066 
M198.655045,629.500061 
	C198.653824,583.358093 198.587891,537.215881 198.750244,491.074524 
	C198.766708,486.394257 197.253815,484.976501 192.759644,485.091583 
	C183.437607,485.330200 174.101929,485.290710 164.778046,485.085175 
	C160.766403,484.996735 159.256851,486.207947 159.269180,490.463684 
	C159.396896,534.606262 159.278534,578.749512 159.366989,622.892273 
	C159.402420,640.575439 175.832184,657.523315 193.567719,658.653931 
	C197.079407,658.877808 198.808777,657.889099 198.707428,653.985962 
	C198.504303,646.162170 198.651855,638.329285 198.655045,629.500061 
M719.820129,597.339905 
	C712.664062,603.033447 712.666199,603.031372 719.200623,609.843445 
	C720.121887,610.803894 720.935364,611.880310 721.926331,612.759216 
	C727.605652,617.796326 733.323425,622.790039 740.312134,628.925903 
	C747.902710,620.922302 756.559753,611.746460 765.283936,602.634766 
	C767.058167,600.781738 766.191650,599.354492 764.928833,597.873779 
	C759.318542,591.295776 753.634216,584.779724 748.102234,578.136719 
	C745.605896,575.138977 743.673645,575.156616 740.875549,577.999023 
	C734.354919,584.622803 728.259583,591.745667 719.820129,597.339905 
z"/>
<path fill="#000000" opacity="1.000000" stroke="none" 
	d="
M315.926331,569.074341 
	C367.775085,620.466919 419.366882,671.615173 470.968994,722.753052 
	C472.768280,724.536133 474.238159,726.515991 475.239197,728.846680 
	C478.752075,737.025391 473.620544,745.303955 464.747040,745.312805 
	C402.587677,745.374512 340.428192,745.361511 278.268768,745.322144 
	C271.244629,745.317688 266.699188,740.801941 266.693268,733.709534 
	C266.641724,672.216675 266.626587,610.723755 266.699432,549.231018 
	C266.710602,539.789185 275.571503,534.747925 283.943115,539.227966 
	C285.826752,540.236023 287.627502,541.544678 289.166992,543.026062 
	C298.051483,551.575134 306.846069,560.217590 315.926331,569.074341 
M350.735840,634.764771 
	C330.875397,614.830688 310.896881,595.020508 289.575623,575.190491 
	C289.363159,577.522034 289.196167,578.500366 289.196075,579.478760 
	C289.192963,625.786011 289.246460,672.093323 289.143616,718.400269 
	C289.134155,722.655151 290.739532,723.778320 294.736572,723.704041 
	C314.214661,723.341614 333.693665,723.648804 353.181427,723.164368 
	C379.152740,722.518677 405.147827,722.844421 431.132263,722.680664 
	C433.019379,722.668762 435.093384,723.289734 437.464447,721.473877 
	C408.624908,692.638123 379.932465,663.949402 350.735840,634.764771 
z"/>
<path fill="#000000" opacity="1.000000" stroke="none" 
	d="
M708.157837,530.125244 
	C682.527039,560.177490 650.897217,579.025818 611.848267,584.366333 
	C559.963806,591.462219 515.392090,576.114868 478.950623,538.739929 
	C456.775696,515.997070 443.557068,488.330811 438.567017,456.780090 
	C426.985077,383.550690 471.892639,310.611786 541.775085,289.282806 
	C602.131836,270.861115 656.082153,283.920929 700.795593,329.093170 
	C723.028870,351.554565 735.909607,379.307892 740.497681,410.771942 
	C746.965515,455.126343 736.636475,494.889435 708.157837,530.125244 
M628.090454,558.539307 
	C629.661194,557.990723 631.239868,557.463745 632.801514,556.890442 
	C693.476929,534.618591 730.177979,474.915009 718.396179,410.985138 
	C704.973511,338.151306 639.536926,296.595581 573.770203,304.594849 
	C539.566040,308.755127 510.390625,323.817780 488.953979,351.232697 
	C456.220123,393.095428 449.324310,439.431091 471.072540,488.029602 
	C497.851898,547.870728 563.972778,576.953491 628.090454,558.539307 
z"/>
</svg>